<svg width="16" height="24" viewBox="0 0 16 24" fill="none" xmlns="http://www.w3.org/2000/svg">
<path d="M8.77832 0.563328C8.62311 0.220086 8.2857 8.14755e-05 7.91426 2.26348e-08C7.54274 -8.14302e-05 7.20509 0.219678 7.04989 0.562921C4.6573 5.85532 0.414062 12.6672 0.414062 16.3721C0.414062 20.5849 3.77186 24 7.91402 24C12.0562 24 15.4141 20.5848 15.4141 16.3721C15.4141 12.6675 11.171 5.85573 8.77832 0.563328ZM7.59368 21.57C4.8226 21.57 2.56823 19.2772 2.56823 16.4589C2.56823 15.8966 3.01648 15.4407 3.56932 15.4407C4.12216 15.4407 4.5704 15.8966 4.5704 16.4589C4.5704 18.1543 5.92667 19.5337 7.59368 19.5337C8.14651 19.5337 8.59476 19.9896 8.59476 20.5519C8.59476 21.1142 8.14651 21.57 7.59368 21.57Z" fill="white"/>
</svg>
