<svg width="23" height="24" viewBox="0 0 23 24" fill="none" xmlns="http://www.w3.org/2000/svg">
<path d="M22.8295 3.317V16.1909C22.7009 16.0195 22.5723 15.8481 22.418 15.6853C21.6381 14.931 20.6266 14.5196 19.5638 14.5196H18.6124C18.2524 14.5196 17.9609 14.2281 17.9609 13.8681V1.42279C17.9609 0.636886 18.5977 0 19.3838 0H19.5124C21.344 0 22.8295 1.48542 22.8295 3.317Z" fill="white"/>
<path d="M4.23082 14.1973C1.89427 14.1973 0 16.1163 0 18.4828C0 20.4396 1.59862 22.3039 2.83026 23.4507C3.61803 24.1844 4.84374 24.1844 5.6315 23.4507C6.86315 22.3047 8.46176 20.4396 8.46176 18.4828C8.46176 16.1155 6.56749 14.1973 4.23082 14.1973ZM5.00316 18.4563C5.00316 18.8822 4.65768 19.2277 4.23174 19.2277C3.80568 19.2277 3.46032 18.8822 3.46032 18.4563C3.46032 18.0302 3.80568 17.6531 4.23174 17.6531C4.65768 17.6531 5.00316 17.9668 5.00316 18.3929V18.4563Z" fill="white"/>
<path d="M18.9772 16.0616H18.6172C17.4052 16.0616 16.423 15.0793 16.423 13.8674V4.15625H2.85426C1.27805 4.15625 0 5.43425 0 7.01041V14.5265C1.05519 13.3771 2.5577 12.6529 4.22831 12.6529C7.41172 12.6529 10.0012 15.2671 10.0012 18.4812C10.0012 19.6838 9.57353 20.8177 8.96485 21.83H11.5595H19.1778C20.7704 21.83 22.0621 20.5383 22.0621 18.9458C22.0621 17.3533 20.7704 16.0616 19.1778 16.0616H18.9772Z" fill="white"/>
</svg>
