<svg width="16" height="16" viewBox="0 0 16 16" fill="none" xmlns="http://www.w3.org/2000/svg">
<path d="M6.92684 6.70527L8.11202 5.5247C8.11202 5.5247 9.29721 4.34413 10.4824 5.5247C11.6676 6.70527 10.4824 7.88585 10.4824 7.88585L8.90215 9.45994C8.90215 9.45994 7.71696 10.6405 6.53178 9.45994C6.30955 9.23859 6.17188 8.94443 6.17188 8.94443L6.8342 8.28567C6.8342 8.28567 6.80753 8.55405 7.12437 8.86966C7.12437 8.86966 7.71696 9.45994 8.30955 8.86966L9.8898 7.29556C9.8898 7.29556 10.4824 6.70527 9.8898 6.11499C9.29721 5.5247 8.70462 6.11499 8.70462 6.11499L7.96802 6.84871C7.96802 6.84871 7.6018 6.54944 6.85276 6.77906L6.92684 6.70527Z" fill="#1A41DD" fill-opacity="0.6"/>
<path d="M8.0823 10.2462L6.89712 11.4267C6.89712 11.4267 5.71193 12.6073 4.52675 11.4267C3.34156 10.2462 4.52675 9.06559 4.52675 9.06559L6.107 7.4915C6.107 7.4915 7.29218 6.31092 8.47737 7.4915C8.69959 7.71285 8.83727 8.00701 8.83727 8.00701L8.17475 8.66597C8.17475 8.66597 8.20142 8.39739 7.88458 8.08178C7.88458 8.08178 7.29198 7.4915 6.69939 8.08178L5.11914 9.65588C5.11914 9.65588 4.52655 10.2462 5.11914 10.8365C5.71174 11.4267 6.30433 10.8365 6.30433 10.8365L7.04092 10.1027C7.04092 10.1027 7.40714 10.402 8.15618 10.1724L8.0823 10.2462Z" fill="#1A41DD" fill-opacity="0.6"/>
</svg>
