<svg width="12" height="24" viewBox="0 0 12 24" fill="none" xmlns="http://www.w3.org/2000/svg">
<path d="M6.42312 15.563V3.88614C6.42312 3.45395 6.07136 3.10352 5.63743 3.10352C5.20351 3.10352 4.85175 3.45391 4.85175 3.88614V15.5631C3.60984 15.9064 2.69531 17.0418 2.69531 18.3868C2.69531 20.0027 4.0151 21.3175 5.63743 21.3175C7.25976 21.3175 8.57955 20.0028 8.57955 18.3868C8.57955 17.0418 7.66503 15.9064 6.42312 15.563ZM5.63743 19.7522C4.88158 19.7522 4.26668 19.1396 4.26668 18.3867C4.26668 17.6338 4.88158 17.0213 5.63743 17.0213C6.39328 17.0213 7.00819 17.6338 7.00819 18.3867C7.00819 19.1396 6.39328 19.7522 5.63743 19.7522Z" fill="white"/>
<path d="M9.09352 13.9471V3.44245C9.09352 1.5443 7.54319 0 5.63762 0C3.732 0 2.18172 1.5443 2.18172 3.44245V13.9472C0.818778 15.0001 0.0107896 16.6157 0.000107452 18.3492C-0.018857 21.4229 2.47489 23.9576 5.55918 23.9995C5.58576 23.9999 5.61207 24 5.63856 24C8.74515 24 11.2754 21.4979 11.2754 18.3843C11.2753 16.6364 10.4672 15.0078 9.09352 13.9471ZM5.58059 22.4344C3.3562 22.4041 1.55768 20.5758 1.57138 18.3588C1.57971 17.0041 2.26341 15.7492 3.40015 15.0019C3.62043 14.857 3.75304 14.6117 3.75304 14.3487V3.44245C3.75309 2.40736 4.59848 1.56525 5.63762 1.56525C6.67676 1.56525 7.52216 2.40741 7.52216 3.44245V14.3486C7.52216 14.6116 7.65472 14.8569 7.87505 15.0018C9.02025 15.7547 9.70396 17.0192 9.70396 18.3843C9.70396 20.6422 7.85509 22.4655 5.58059 22.4344Z" fill="white"/>
</svg>
