<svg width="17" height="17" viewBox="0 0 17 17" fill="none" xmlns="http://www.w3.org/2000/svg">
<path d="M8.48438 0.324219C4.07312 0.324219 0.484375 3.91297 0.484375 8.32422C0.484375 12.7355 4.07312 16.3242 8.48438 16.3242C12.8956 16.3242 16.4844 12.7355 16.4844 8.32422C16.4844 3.91297 12.8956 0.324219 8.48438 0.324219ZM9.06975 15.1281V14.2228C9.06975 13.8996 8.80766 13.6375 8.48438 13.6375C8.16109 13.6375 7.899 13.8996 7.899 14.2228V15.1281C4.59938 14.8467 1.96191 12.2092 1.68047 8.90959H2.58575C2.90903 8.90959 3.17112 8.6475 3.17112 8.32422C3.17112 8.00094 2.90903 7.73884 2.58575 7.73884H1.68047C1.96191 4.43922 4.59938 1.80175 7.899 1.52031V2.42559C7.899 2.74888 8.16109 3.01097 8.48438 3.01097C8.80766 3.01097 9.06975 2.74888 9.06975 2.42559V1.52031C12.3694 1.80178 15.0068 4.43925 15.2883 7.73884H14.383C14.0597 7.73884 13.7976 8.00094 13.7976 8.32422C13.7976 8.6475 14.0597 8.90959 14.383 8.90959H15.2883C15.0068 12.2092 12.3694 14.8467 9.06975 15.1281Z" fill="#656565"/>
<path d="M10.4673 7.73919H9.06919V4.75725C9.06919 4.43397 8.80709 4.17188 8.48381 4.17188C8.16053 4.17188 7.89844 4.43397 7.89844 4.75725V8.32456C7.89844 8.64784 8.16053 8.90994 8.48381 8.90994H10.4673C10.7906 8.90994 11.0527 8.64784 11.0527 8.32456C11.0527 8.00128 10.7906 7.73919 10.4673 7.73919Z" fill="#656565"/>
</svg>
