<svg width="17" height="20" viewBox="0 0 17 20" fill="none" xmlns="http://www.w3.org/2000/svg">
<path d="M16.388 13.5195L15.9333 12.7576C15.407 11.8833 15.1286 10.8774 15.1286 9.84793V8.87718C15.1286 8.55978 14.8712 8.3024 14.5538 8.3024C14.2364 8.3024 13.979 8.55978 13.979 8.87718V9.84793C13.979 11.0863 14.3143 12.2978 14.9485 13.3483L15.4032 14.1103C15.5405 14.3389 15.4549 14.5413 15.4115 14.618C15.3687 14.6953 15.2384 14.8741 14.9702 14.8741H1.65891C1.39068 14.8741 1.26039 14.6953 1.2176 14.618C1.17417 14.5413 1.0886 14.3389 1.22718 14.1083L1.67998 13.3503C2.31416 12.2965 2.65009 11.085 2.65009 9.84793V6.81436C2.65009 5.29949 3.23892 3.87658 4.30865 2.80749C5.37647 1.7384 6.79937 1.14956 8.3136 1.14956C9.15278 1.14956 9.9958 1.33796 10.75 1.69497C11.0368 1.831 11.3797 1.70838 11.5151 1.42099C11.6512 1.1336 11.5285 0.791283 11.2412 0.65589C10.3343 0.22672 9.32202 0 8.3136 0C6.49154 0 4.78061 0.708259 3.49438 1.99449C2.20814 3.28073 1.49925 4.9923 1.49925 6.81436V9.84793C1.49925 10.8761 1.2208 11.8827 0.693274 12.7595L0.241112 13.5176C-0.0711857 14.0362 -0.0807654 14.6588 0.216205 15.1838C0.513176 15.7094 1.05283 16.0236 1.65891 16.0236H4.95305C5.15039 17.7122 6.57329 19.0317 8.3136 19.0317C10.0539 19.0317 11.4768 17.7122 11.6742 16.0236H14.9689C15.575 16.0236 16.1147 15.7094 16.4116 15.1838C16.7086 14.6588 16.699 14.0355 16.388 13.5195ZM8.3136 17.8821C7.20683 17.8821 6.28973 17.0774 6.10325 16.0236H10.5246C10.3375 17.0774 9.42038 17.8821 8.3136 17.8821Z" fill="#D4D9EB"/>
<path d="M13.8726 7.27331C15.3913 7.27331 16.6271 6.03817 16.6271 4.51947C16.6271 3.00077 15.3913 1.76562 13.8726 1.76562C12.3539 1.76562 11.1182 3.00077 11.1182 4.51947C11.1182 6.03817 12.3539 7.27331 13.8726 7.27331ZM13.8726 2.91519C14.7572 2.91519 15.4769 3.63494 15.4769 4.51947C15.4769 5.40399 14.7572 6.12375 13.8726 6.12375C12.9881 6.12375 12.2684 5.40399 12.2684 4.51947C12.2684 3.63494 12.9881 2.91519 13.8726 2.91519Z" fill="#D4D9EB"/>
</svg>
