<svg width="20" height="17" viewBox="0 0 20 17" fill="none" xmlns="http://www.w3.org/2000/svg">
<path d="M17.6821 4.97327V4.97436L17.6799 4.97545H17.6777H17.6756C17.5599 4.97545 17.4485 5.02238 17.3667 5.10424C17.2826 5.18828 17.2357 5.30179 17.2357 5.41966V9.9885C17.2357 10.1064 17.2826 10.2199 17.3667 10.3039C17.4496 10.3869 17.5631 10.4338 17.6821 10.4338V10.4349L19.1348 10.4338C19.3814 10.4338 19.5812 10.2341 19.5812 9.9874V5.42079C19.5812 5.17413 19.3815 4.97438 19.1348 4.97438L17.6821 4.97327ZM1.95911 1.71875V1.71984C0.888426 1.72639 0.0207319 2.57116 0 3.63858V11.7687C0.0207372 12.8372 0.888426 13.682 1.95911 13.6896L9.28909 13.6897C9.53467 13.6897 8.84378 13.4889 8.84378 13.2433C8.84378 12.9967 9.5494 12.7969 9.30382 12.7969L1.96023 12.7968C1.36976 12.7903 0.892813 12.309 0.892813 11.7174V3.69091C0.892813 3.09826 1.36976 2.61805 1.96023 2.61148L11.782 2.61156C12.0286 2.61156 11.782 2.27976 11.782 2.03308C11.782 1.78641 16.8407 1.72001 11.7809 1.71993L1.95911 1.71875ZM14.5204 1.71875H11.782V1.71984L11.7809 1.71993C11.5353 1.71993 11.3367 1.91957 11.3367 2.16516C11.3367 2.41182 11.5364 2.61156 11.782 2.61156H14.5193V2.61266C15.1098 2.61811 15.5867 3.09835 15.5867 3.69099V11.7175C15.5867 12.309 15.1098 12.7903 14.5193 12.7958L9.28909 12.7969C9.04352 12.7969 8.84378 12.9966 8.84378 13.2433C8.84378 13.49 9.04351 13.6897 9.28909 13.6897H14.5204C15.5911 13.6821 16.4599 12.8373 16.4795 11.7688V3.63866C16.4599 2.57125 15.591 1.72638 14.5204 1.71875Z" fill="#F2F2F2"/>
<path d="M7.37762 4.07502C7.36985 3.78344 7.50592 3.63766 7.78583 3.63766H8.71886C8.99878 3.63766 9.13484 3.78344 9.12707 4.07502L8.96962 9.17173C8.96184 9.42443 8.83549 9.55078 8.59057 9.55078H7.91412C7.6692 9.55078 7.54285 9.42443 7.53507 9.17173L7.37762 4.07502ZM7.80915 12C7.53702 12 7.40095 11.8542 7.40095 11.5626V10.7812C7.40095 10.4896 7.53702 10.3439 7.80915 10.3439H8.69554C8.96767 10.3439 9.10374 10.4896 9.10374 10.7812V11.5626C9.10374 11.8542 8.96767 12 8.69554 12H7.80915Z" fill="#F2F2F2"/>
</svg>

