   <svg width="20" height="13" viewBox="0 0 20 13" fill="none" xmlns="http://www.w3.org/2000/svg">
<path d="M17.8536 3.39555V3.39665L17.8514 3.39775H17.8492H17.847C17.7302 3.39775 17.6178 3.44514 17.5351 3.52779C17.4503 3.61265 17.4029 3.72726 17.4029 3.84627V8.45944C17.4029 8.57846 17.4503 8.69306 17.5351 8.77792C17.6189 8.86167 17.7335 8.90906 17.8536 8.90906V8.91016L19.3204 8.90906C19.5695 8.90906 19.7711 8.70739 19.7711 8.45832V3.84741C19.7711 3.59836 19.5695 3.39668 19.3204 3.39668L17.8536 3.39555ZM1.97811 0.109459V0.110561C0.897045 0.117174 0.020933 0.970142 0 2.04791V10.2569C0.0209384 11.3358 0.897045 12.1888 1.97811 12.1965L5.31724 12.1954C5.5652 12.1954 5.76688 11.9937 5.76688 11.7457C5.76688 11.4967 5.56521 11.295 5.31724 11.295H1.97924C1.38305 11.2884 0.901474 10.8024 0.901474 10.2051V2.10075C0.901474 1.50235 1.38305 1.01748 1.97924 1.01085H7.82328C8.07233 1.01085 8.27402 0.809181 8.27402 0.560112C8.27402 0.311043 8.07235 0.109375 7.82328 0.109375L1.97811 0.109459ZM14.6612 0.109459H11.8962V0.110561H11.8951C11.6472 0.110561 11.4466 0.312229 11.4466 0.560198C11.4466 0.809253 11.6483 1.01094 11.8963 1.01094H14.6601V1.01204C15.2563 1.01755 15.7379 1.50244 15.7379 2.10084V10.2052C15.7379 10.8025 15.2563 11.2885 14.6601 11.294L9.37921 11.2951C9.13125 11.2951 8.92957 11.4968 8.92957 11.7458C8.92957 11.9949 9.13124 12.1966 9.37921 12.1966H14.6613C15.7423 12.1889 16.6196 11.3359 16.6394 10.257V2.048C16.6195 0.970229 15.7423 0.117161 14.6612 0.109459Z" fill="#F2F2F2"/>
<path d="M10.1538 5.38094e-05V0.00115583H10.1527H10.1516C10.0205 0.00115583 9.89045 0.0595624 9.80119 0.169765L4.3287 7.03873C4.2207 7.17428 4.19976 7.36051 4.2758 7.517C4.35074 7.67129 4.50833 7.77047 4.68134 7.77047H4.68355L7.70981 7.74953L6.37856 12.2953C6.31795 12.5024 6.41162 12.7228 6.60337 12.822C6.66949 12.8562 6.74002 12.8727 6.81055 12.8727C6.94499 12.8727 7.07614 12.8132 7.16429 12.7019L12.5048 5.95313C12.6128 5.81648 12.6326 5.63025 12.5565 5.47486C12.4805 5.32058 12.3229 5.2225 12.151 5.2225H12.1466L9.21202 5.25225L10.5796 0.619341C10.584 0.60281 10.5874 0.586279 10.5907 0.57085H10.5896C10.6347 0.401141 10.5807 0.213805 10.4353 0.0980805C10.3526 0.0319581 10.2534 0 10.1543 0L10.1538 5.38094e-05Z" fill="#F2F2F2"/>
</svg>