                    <svg width="20" height="12" viewBox="0 0 20 12" fill="none" xmlns="http://www.w3.org/2000/svg">
<path d="M17.4296 3.20804V3.20911L17.4274 3.21019H17.4253H17.4231C17.3091 3.21019 17.1993 3.25645 17.1186 3.33714C17.0358 3.41998 16.9895 3.53186 16.9895 3.64805V8.15164C16.9895 8.26783 17.0358 8.37972 17.1186 8.46256C17.2004 8.54432 17.3123 8.59058 17.4296 8.59058V8.59166L18.8615 8.59058C19.1046 8.59058 19.3015 8.3937 19.3015 8.15055V3.64917C19.3015 3.40603 19.1046 3.20914 18.8615 3.20914L17.4296 3.20804ZM1.93113 0V0.00107584C0.875737 0.00753102 0.0204358 0.840238 0 1.89241V9.90644C0.020441 10.9597 0.875737 11.7924 1.93113 11.7999L9.15642 11.8C9.39849 11.8 8.71746 11.602 8.71746 11.36C8.71746 11.1168 9.41301 10.9199 9.17094 10.9199L1.93223 10.9199C1.35019 10.9134 0.880061 10.4389 0.880061 9.85584V1.94399C0.880061 1.35981 1.35019 0.886451 1.93223 0.879979L11.6137 0.880063C11.8568 0.880063 11.6137 0.552995 11.6137 0.309842C11.6137 0.066689 16.6001 0.00124079 11.6126 0.00115831L1.93113 0ZM14.313 0H11.6137V0.00107584L11.6126 0.00115831C11.3705 0.00115831 11.1747 0.197953 11.1747 0.440032C11.1747 0.683172 11.3716 0.880063 11.6137 0.880063H14.3119V0.881139C14.894 0.886518 15.3641 1.35989 15.3641 1.94408V9.85593C15.3641 10.439 14.894 10.9135 14.3119 10.9189L9.15642 10.9199C8.91436 10.9199 8.71746 11.1168 8.71746 11.36C8.71746 11.6031 8.91434 11.8 9.15642 11.8H14.313C15.3684 11.7925 16.2248 10.9598 16.2441 9.90652V1.89249C16.2248 0.840323 15.3684 0.00751883 14.313 0Z" fill="#F2F2F2"/>
<path d="M1.64844 2.78259C1.64844 2.10228 2.19994 1.55078 2.88025 1.55078H11.7682C12.4485 1.55078 13 2.10228 13 2.78259V6V9.13226C13 9.81256 12.4485 10.3641 11.7682 10.3641H2.88025C2.19994 10.3641 1.64844 9.81256 1.64844 9.13226V2.78259Z" fill="#F2F2F2"/>
</svg>