<svg width="13" height="25" viewBox="0 0 13 25" fill="none" xmlns="http://www.w3.org/2000/svg">
<path d="M9.12803 2.34976H8.72899C8.72899 2.32482 8.72899 2.29988 8.72899 2.25V2.17518C8.72899 1.32723 8.03067 0.628906 7.18271 0.628906H4.81342C3.96546 0.628906 3.26714 1.32723 3.26714 2.17518V2.25C3.26714 2.27494 3.26714 2.32482 3.26714 2.34976H3.1175C1.39664 2.34976 0 3.7464 0 5.46726V21.2543C0 22.9751 1.39664 24.3718 3.1175 24.3718H9.12803C10.8489 24.3718 12.2206 22.9751 12.2206 21.2543V5.46726C12.2206 3.7464 10.8239 2.34976 9.12803 2.34976ZM4.18992 2.25V2.17518C4.18992 1.82603 4.46426 1.55169 4.81342 1.55169H7.18271C7.53187 1.55169 7.80621 1.82603 7.80621 2.17518V2.25C7.80621 2.27494 7.80621 2.29988 7.80621 2.34976H4.16498C4.16498 2.32482 4.18992 2.29988 4.18992 2.25ZM9.12803 23.449H3.1175C1.89544 23.449 0.922779 22.4514 0.922779 21.2543V5.46726C0.922779 4.2452 1.92038 3.27254 3.1175 3.27254H9.12803C10.3251 3.27254 11.3228 4.27014 11.3228 5.46726V21.2543C11.2978 22.4763 10.3251 23.449 9.12803 23.449Z" fill="white"/>
<path d="M10.0555 12.0525H6.88808C6.8382 12.0525 6.81326 12.0275 6.81326 12.0026C6.78832 11.9776 6.78832 11.9278 6.78832 11.8779L8.13508 6.79012C8.13508 6.7153 8.11014 6.61554 8.03532 6.5906C7.9605 6.56566 7.86074 6.56566 7.81086 6.61554L2.02479 14.0227C1.97491 14.0726 1.94997 14.1724 1.99985 14.2472C2.02479 14.322 2.09961 14.3719 2.19937 14.3719H5.3418C5.39168 14.3719 5.41662 14.3968 5.41662 14.4218C5.44156 14.4467 5.44156 14.4966 5.44156 14.5465L4.06986 19.6342C4.06986 19.709 4.0948 19.7838 4.16962 19.8337C4.19456 19.8337 4.2195 19.8587 4.24444 19.8587C4.29432 19.8587 4.3442 19.8337 4.39408 19.7838L10.2051 12.4016C10.255 12.3517 10.2799 12.252 10.23 12.1772C10.2051 12.1023 10.1303 12.0525 10.0555 12.0525Z" fill="white"/>
</svg>
