<svg width="26" height="26" viewBox="0 0 26 26" fill="none" xmlns="http://www.w3.org/2000/svg">
<path d="M19.27 6.126C18.866 5.733 18.211 5.733 17.811 6.126L12.7 11.241L7.592 6.126C7.188 5.733 6.537 5.733 6.132 6.126C5.727 6.534 5.727 7.187 6.132 7.588L11.246 12.696L6.132 17.813C5.728 18.204 5.728 18.868 6.132 19.258C6.537 19.676 7.188 19.676 7.592 19.258L12.7 14.153L17.811 19.258C18.211 19.676 18.866 19.676 19.27 19.258C19.67 18.867 19.67 18.203 19.27 17.813L14.157 12.696L19.27 7.588C19.67 7.187 19.67 6.534 19.27 6.126ZM12.7 0C5.682 0 0 5.689 0 12.696C0 19.723 5.682 25.391 12.7 25.391C19.716 25.391 25.399 19.723 25.399 12.696C25.399 5.689 19.715 0 12.7 0ZM12.7 23.594C6.689 23.594 1.813 18.711 1.813 12.696C1.812 6.69 6.688 1.811 12.7 1.811C18.712 1.811 23.589 6.69 23.589 12.697C23.588 18.711 18.711 23.594 12.7 23.594Z" fill="#454545"/>
</svg>
