<svg width="18" height="18" viewBox="0 0 18 18" fill="none" xmlns="http://www.w3.org/2000/svg">
<path fill-rule="evenodd" clip-rule="evenodd" d="M0.931274 0.00637971H7.28456C7.79761 0.00637971 8.21583 0.424673 8.21583 0.93781V7.29195C8.21583 7.8053 7.79782 8.22338 7.28456 8.22338H0.931274C0.41801 8.22338 0 7.80509 0 7.29195V0.93781C0 0.424673 0.41801 0.00637971 0.931274 0.00637971ZM13.8828 0C17.5364 0 19.3775 4.43897 16.7921 7.02486C14.2066 9.61075 9.76838 7.76936 9.76838 4.11509C9.76838 1.84245 11.6105 0 13.8828 0ZM16.1174 1.87987C14.1315 -0.106328 10.7224 1.30783 10.7224 4.11509C10.7224 6.92236 14.1315 8.3363 16.1174 6.3501C17.3517 5.11564 17.3515 3.11434 16.1174 1.87987ZM10.7062 9.783H17.0595C17.5728 9.783 17.9908 10.2013 17.9908 10.7144V17.0686C17.9908 17.5817 17.5728 18 17.0595 18H10.7062C10.193 18 9.77497 17.5819 9.77497 17.0686V10.7144C9.77497 10.2013 10.193 9.783 10.7062 9.783ZM17.0366 10.7372H10.729V17.046H17.0368V10.7372H17.0366ZM0.931274 9.783H7.28456C7.79782 9.783 8.21583 10.2013 8.21583 10.7144V17.0686C8.21583 17.5817 7.79782 18 7.28456 18H0.931274C0.418223 18 0 17.5817 0 17.0686V10.7144C0 10.2013 0.41801 9.783 0.931274 9.783ZM7.2616 10.7372H0.954024V17.046H7.26181L7.2616 10.7372ZM7.2616 0.960564H0.954024V7.26941H7.26181L7.2616 0.960564Z" fill="#D4D9EB"/>
</svg>
