<svg xmlns="http://www.w3.org/2000/svg" width="166" height="43" viewBox="0 0 166 43" fill="none">
  <path d="M28.4212 0.0245056C23.7201 0.34919 19.5495 2.0229 15.8911 5.05937C15.2967 5.55326 13.751 7.1035 13.2845 7.67055L12.9233 8.11871H12.6946C12.0224 8.11871 10.5911 8.3565 9.65359 8.62631C8.01646 9.09275 6.13696 10.0897 4.82451 11.1872C1.7606 13.7526 0 17.5116 0 21.4947C0 26.3924 2.6249 30.8419 6.93266 33.2427C8.5515 34.1436 10.6231 34.7518 12.434 34.857L12.9279 34.8844L13.2663 35.3006C13.7373 35.8813 15.3287 37.4682 15.9597 37.9895C17.7981 39.5077 19.7416 40.6647 21.9046 41.5153C22.6134 41.7942 23.7841 42.1875 23.9076 42.1875C23.9488 42.1875 23.9625 39.151 23.9625 28.1941V14.2008H25.1423H26.3176L27.877 16.1535C28.7367 17.2327 30.3875 19.2997 31.5491 20.7585L33.6572 23.4062V11.8777C33.6572 0.939106 33.6527 0.34919 33.5795 0.326324C33.4377 0.285168 32.2396 0.120541 31.6908 0.0702362C30.9454 0.00164413 29.1254 -0.0212212 28.4212 0.0245056ZM14.3135 13.9264C15.2967 14.0133 16.2616 14.2694 17.0984 14.6627C17.8713 15.0239 18.9276 15.8196 19.5084 16.4781L19.7233 16.7251L18.7218 17.7266C18.1731 18.2753 17.7112 18.7235 17.6929 18.7189C17.6792 18.7098 17.51 18.5268 17.3179 18.3119C16.5862 17.4842 15.6442 16.94 14.5878 16.7434C14.062 16.6428 13.1656 16.6473 12.6398 16.7571C11.7297 16.9446 10.9615 17.3653 10.2847 18.0375C9.43866 18.8881 8.9905 19.821 8.86703 21.01C8.771 21.9429 8.93563 22.8483 9.35177 23.6897C10.0194 25.0251 11.2313 25.9534 12.7083 26.2506C13.248 26.3604 14.501 26.3284 15.0223 26.1866C15.7768 25.9854 16.5268 25.5327 16.9749 25.0159C17.3454 24.5815 17.7112 23.8772 17.8118 23.4016L17.8438 23.2553H15.3927H12.9416V21.9749V20.6944H16.9155H20.8849L20.9169 20.9048C20.9855 21.417 20.9123 22.5465 20.7614 23.2782C20.5602 24.2477 20.1532 25.2354 19.6136 26.0448C19.2203 26.6393 18.3697 27.4853 17.7615 27.8878C14.0482 30.3434 8.73899 28.9075 6.70401 24.9016C5.89459 23.301 5.67051 21.5724 6.05464 19.8713C6.63084 17.3241 8.51491 15.2343 11.0255 14.3471C11.7572 14.091 12.7449 13.9127 13.5818 13.8852C13.6961 13.8852 14.0254 13.9035 14.3135 13.9264Z" fill="white"/>
  <path d="M36.6261 14.9768V28.833H35.4508H34.271L30.6126 24.2463L26.9542 19.6596L26.9405 31.2293C26.9359 37.5903 26.9359 42.8035 26.9451 42.8081C26.9542 42.8172 27.2652 42.8538 27.6402 42.895C29.1721 43.055 30.9373 43.0322 32.5424 42.8264C36.7496 42.2868 40.7418 40.485 43.9429 37.6726C44.6151 37.0827 45.7904 35.8846 46.2705 35.2947L46.6089 34.8831L47.1028 34.8556C48.5342 34.7733 50.1301 34.3801 51.5295 33.7673C54.415 32.5006 56.7518 30.2689 58.142 27.4382C59.0521 25.5908 59.4545 23.9673 59.5231 21.9049C59.642 18.1734 58.2381 14.6293 55.5994 11.9998C54.0401 10.4496 51.9593 9.21944 49.8832 8.62496C48.9457 8.35515 47.5144 8.11736 46.8467 8.11736H46.6181L46.2523 7.67377C45.7675 7.08843 44.6929 5.98634 44.0618 5.42386C42.228 3.80502 40.0787 2.46514 37.8837 1.57798C37.3806 1.37219 36.6901 1.12067 36.6398 1.12067C36.6307 1.12067 36.6261 7.35366 36.6261 14.9768ZM46.9885 14.2497C49.7597 14.5195 51.8587 15.8686 52.9288 18.0636C54.0172 20.2952 53.9029 23.4094 52.6544 25.5176C51.6347 27.237 50.0113 28.2843 47.7156 28.705C47.2492 28.7919 46.9794 28.801 43.8423 28.8193L40.4674 28.8376V21.5208V14.1994H43.4764C45.2645 14.1994 46.6913 14.2177 46.9885 14.2497Z" fill="white"/>
  <path d="M43.4453 21.1328V25.6875L45.2654 25.6646C46.9162 25.6463 47.1174 25.6372 47.4878 25.5503C49.2484 25.125 50.3048 23.9909 50.6066 22.1983C50.7209 21.5032 50.6798 20.2868 50.5152 19.6649C50.3688 19.1024 50.0213 18.389 49.7057 18.0049C49.2942 17.5064 48.6174 17.0628 47.9131 16.8342C47.2683 16.6238 46.7607 16.5781 45.0276 16.5781H43.4453V21.1328Z" fill="white"/>
  <path d="M67.9814 15.2558C67.0851 15.3884 66.3122 15.7406 65.704 16.2985C65.3107 16.6597 65.0043 17.1262 64.826 17.6246C64.7071 17.9676 64.6888 18.0956 64.6705 18.6398C64.6476 19.3304 64.7025 19.6367 64.9357 20.1306C65.4159 21.1687 66.2025 21.7449 68.2192 22.5406C69.3304 22.9796 69.6002 23.1168 69.8837 23.382C70.1947 23.6747 70.3044 23.8942 70.3044 24.2372C70.3044 25.0466 69.4173 25.6091 68.2832 25.5176C67.2222 25.4353 66.4403 25.0512 65.6766 24.2372L65.3062 23.8439L64.6202 24.6716L63.9297 25.5039L64.012 25.6457C64.0532 25.7234 64.2635 25.9658 64.4784 26.1853C65.4937 27.2188 66.925 27.7812 68.5438 27.7812C70.0895 27.7812 71.2785 27.3285 72.1291 26.4094C72.7098 25.7829 72.9888 25.0375 72.9934 24.1229C72.9979 23.2083 72.7647 22.5589 72.216 21.969C71.809 21.53 71.2556 21.1778 70.3456 20.7846C67.9631 19.7556 67.9128 19.7328 67.5927 19.4081C67.2543 19.0743 67.1674 18.6033 67.3594 18.2008C67.4783 17.9539 67.6612 17.7938 67.9997 17.6338C68.2329 17.524 68.2969 17.5149 68.8685 17.5195C69.4173 17.5195 69.5316 17.5332 69.8746 17.6475C70.4919 17.8533 70.9538 18.1094 71.3151 18.4569L71.498 18.6307L72.1565 17.7344L72.8104 16.8335L72.5681 16.614C72.0239 16.1247 71.2968 15.704 70.6063 15.4799C69.8654 15.2375 68.7542 15.1415 67.9814 15.2558Z" fill="white"/>
  <path d="M79.7539 15.2951C78.5832 15.5009 77.5086 16.0542 76.6122 16.9093C75.5696 17.9108 74.9294 19.1318 74.719 20.5311C74.6413 21.0525 74.655 22.1363 74.7419 22.6805C75.1489 25.1316 77.0604 27.1254 79.5161 27.6422C79.8042 27.7062 80.2203 27.7473 80.7142 27.7656C81.9169 27.8068 82.8224 27.633 83.7598 27.1894C85.5753 26.3251 86.8466 24.7063 87.2399 22.7582C87.3542 22.1957 87.3542 20.7781 87.2399 20.2339C86.9792 19.0221 86.4305 17.984 85.5799 17.1105C84.5418 16.045 83.3711 15.4414 81.9809 15.2539C81.4185 15.1762 80.3072 15.199 79.7539 15.2951ZM82.0358 17.7188C83.33 18.0892 84.3406 19.1227 84.6973 20.4397C84.8436 20.9656 84.8436 22.0585 84.6973 22.589C84.3452 23.8923 83.3117 24.9212 82.013 25.2688C81.4916 25.4105 80.5222 25.4105 80.0054 25.2688C79.2783 25.0721 78.7158 24.7337 78.1899 24.1758C77.7052 23.6591 77.408 23.0783 77.2616 22.3421C77.1427 21.7567 77.1839 20.801 77.3531 20.2796C77.5223 19.7492 77.6869 19.4382 78.0116 19.0312C78.5878 18.3087 79.3378 17.8468 80.2569 17.6502C80.6914 17.5541 81.5968 17.5907 82.0358 17.7188Z" fill="white"/>
  <path d="M134.331 15.2538C132.296 15.5693 130.531 16.868 129.644 18.7018C129.25 19.5067 129.068 20.2521 129.022 21.2078C128.935 22.8678 129.41 24.3312 130.43 25.5613C131.354 26.6771 132.538 27.3768 134.016 27.674C134.587 27.7883 136.082 27.7883 136.654 27.674C137.967 27.4088 139.028 26.8234 139.983 25.822C140.861 24.9119 141.392 23.8876 141.611 22.6849C141.716 22.1087 141.716 20.8603 141.607 20.3069C141.364 19.0676 140.838 18.057 139.965 17.1424C139.073 16.2095 138.053 15.6196 136.823 15.3315C136.375 15.2263 134.811 15.176 134.331 15.2538ZM136.343 17.6958C138.2 18.2079 139.384 20.0097 139.156 21.9761C139.092 22.5431 138.977 22.9318 138.73 23.412C138.584 23.7001 138.442 23.8784 138.058 24.2626C137.619 24.7061 137.537 24.7702 137.098 24.9805C136.832 25.1086 136.485 25.2412 136.32 25.2823C135.15 25.5659 133.892 25.3052 133 24.5964C132.136 23.9104 131.642 22.9638 131.542 21.7886C131.477 21.0615 131.697 20.0783 132.067 19.4564C132.63 18.5052 133.686 17.7872 134.788 17.6089C135.063 17.5677 136.069 17.6226 136.343 17.6958Z" fill="white"/>
  <path d="M160.583 15.2558C158.932 15.4982 157.693 16.5134 157.332 17.9264C157.24 18.2877 157.24 19.2115 157.332 19.5727C157.601 20.6062 158.292 21.3653 159.531 21.9873C159.755 22.1016 160.345 22.3531 160.83 22.5452C161.946 22.9888 162.202 23.1168 162.485 23.382C162.801 23.6747 162.906 23.8942 162.906 24.2372C162.897 25.0512 162.019 25.6091 160.885 25.5176C159.828 25.4353 159.056 25.0603 158.301 24.26L157.908 23.8439L157.222 24.6716L156.531 25.5039L156.614 25.6457C156.655 25.7234 156.865 25.9658 157.08 26.1853C158.086 27.2142 159.527 27.7812 161.145 27.7812C162.691 27.7812 163.88 27.3285 164.731 26.4094C165.229 25.8697 165.513 25.2204 165.586 24.4567C165.709 23.1031 165.202 22.0742 164.049 21.3379C163.853 21.2099 163.35 20.9583 162.933 20.78C161.004 19.9431 160.706 19.8105 160.464 19.6367C160.048 19.3486 159.865 19.0423 159.865 18.6536C159.865 18.1917 160.094 17.8716 160.601 17.6338C160.834 17.524 160.898 17.5149 161.47 17.5195C162.019 17.5195 162.133 17.5332 162.476 17.6475C163.093 17.8533 163.551 18.1094 163.917 18.4569L164.1 18.6307L164.758 17.7298L165.417 16.8335L165.215 16.6552C164.077 15.6582 162.837 15.1964 161.356 15.2101C161.081 15.2147 160.729 15.233 160.583 15.2558Z" fill="white"/>
  <path d="M89.4922 21.4908V27.5957H93.8137H98.1351V26.4296V25.2635L95.0392 25.2543L91.9387 25.2406L91.925 20.3109L91.9159 15.3858H90.704H89.4922V21.4908Z" fill="white"/>
  <path d="M100.253 19.6952C100.266 23.8658 100.271 24.0213 100.362 24.4191C100.687 25.823 101.414 26.7331 102.695 27.3321C103.362 27.6431 103.838 27.7437 104.812 27.7666C105.983 27.7986 106.609 27.6797 107.441 27.2635C108.598 26.6919 109.307 25.791 109.623 24.4969C109.719 24.1082 109.723 24.003 109.737 19.741L109.755 15.3875H108.516H107.281V19.4208C107.281 22.8597 107.268 23.5045 107.213 23.7515C106.975 24.7484 106.248 25.3566 105.201 25.4343C103.98 25.5212 103.065 24.9039 102.768 23.7926C102.699 23.5365 102.69 23.0655 102.676 19.4437L102.658 15.3875H101.446H100.234L100.253 19.6952Z" fill="white"/>
  <path d="M112.039 16.5519V17.718L113.768 17.7272L115.492 17.7409L115.505 22.666L115.515 27.5957H116.749H117.984V22.6569V17.718H119.722H121.459V16.5519V15.3858H116.749H112.039V16.5519Z" fill="white"/>
  <path d="M124.156 21.4908V27.5957H125.368H126.58V21.4908V15.3858H125.368H124.156V21.4908Z" fill="white"/>
  <path d="M143.961 21.4908V27.5957H145.15H146.339L146.348 23.8596L146.362 20.1234L149.517 23.855L152.672 27.5911L153.509 27.5957H154.342V21.4908V15.3858H153.153H151.964V19.1357C151.964 21.1981 151.945 22.8855 151.927 22.8855C151.904 22.8855 150.45 21.1981 148.689 19.1357L145.493 15.3858H144.729H143.961V21.4908Z" fill="white"/>
</svg>