<svg width="17" height="19" viewBox="0 0 17 19" fill="none" xmlns="http://www.w3.org/2000/svg">
<path fill-rule="evenodd" clip-rule="evenodd" d="M10.7383 4.02593V0.894531H11.6325V4.02593C11.6325 5.26155 12.6341 6.26313 13.8697 6.26313H16.1069V7.15735H13.8697C12.14 7.15735 10.7383 5.75563 10.7383 4.02593Z" fill="#D4D9EB"/>
<path fill-rule="evenodd" clip-rule="evenodd" d="M3.13142 0.895053C1.8958 0.895053 0.894216 1.89664 0.894216 3.1314V15.6587C0.894216 16.8935 1.8958 17.8951 3.13142 17.8951H13.8686C15.1042 17.8951 16.1058 16.8935 16.1058 15.6587V6.78785C16.1058 6.26441 15.9221 5.75774 15.5874 5.35593L12.54 1.69948C12.1155 1.18947 11.4855 0.895032 10.822 0.895032L3.13142 0.895053ZM2.15036e-05 3.1314C2.15036e-05 1.4017 1.40172 0 3.13142 0H10.8218C11.7513 0 12.6329 0.412717 13.2276 1.12657L16.2744 4.78302C16.7433 5.34588 17 6.05555 17 6.78785V15.6587C17 17.3884 15.5983 18.7901 13.8686 18.7901H3.1314C1.4017 18.7901 0 17.3884 0 15.6587L2.15036e-05 3.1314Z" fill="#D4D9EB"/>
<path fill-rule="evenodd" clip-rule="evenodd" d="M10.0278 12.6049L13.5526 9.08008L14.1851 9.71256L10.6602 13.2374C9.96149 13.9361 8.82822 13.9361 8.12949 13.2374L7.34348 12.4514C6.99368 12.1016 6.42747 12.1016 6.07767 12.4514L3.44792 15.0811L2.81543 14.4486L5.44519 11.8189C6.14394 11.1201 7.27721 11.1201 7.97594 11.8189L8.76195 12.6049C9.11175 12.9538 9.67796 12.9538 10.0278 12.6049Z" fill="#D4D9EB"/>
</svg>
