<svg width="17" height="18" viewBox="0 0 17 18" fill="none" xmlns="http://www.w3.org/2000/svg">
<path d="M8.50006 0.5C7.76488 0.5 7.02866 0.794986 6.47023 1.38604L1.14615 7.03395C0.412016 7.81242 0 8.86921 0 9.97046V14.9229C0 16.339 1.09282 17.5 2.42931 17.5H4.82412C5.59589 17.5 6.23277 16.8247 6.23277 16.0063V12.5962C6.23277 11.2799 7.22835 10.2264 8.46967 10.2264H8.52928C9.77061 10.2264 10.7662 11.2799 10.7662 12.5962V16.0063C10.7662 16.8247 11.4031 17.5 12.1748 17.5H14.5696C15.9051 17.5 16.999 16.339 16.999 14.9229L17 9.97046C17 8.8693 16.588 7.81248 15.8539 7.03395L10.5298 1.38604C9.97134 0.793879 9.23628 0.5 8.50006 0.5ZM8.50006 1.62779C8.95914 1.62779 9.41929 1.81631 9.77276 2.19114L15.0968 7.83678C15.6302 8.40233 15.9293 9.16971 15.9293 9.97035V14.9227C15.9293 15.7256 15.328 16.3643 14.5719 16.3643H12.1771C11.9836 16.3643 11.8393 16.2113 11.8393 16.0062V12.5961C11.8393 10.6655 10.3512 9.08957 8.53165 9.08957H8.47204C6.6524 9.08957 5.1644 10.6654 5.1644 12.5961V16.0062C5.1644 16.2113 5.02008 16.3643 4.82662 16.3643H2.43182C1.67469 16.3643 1.07441 15.7256 1.07441 14.9227L1.07127 9.97035C1.07127 9.17081 1.37037 8.40233 1.90371 7.83678L7.2278 2.19114C7.58126 1.81632 8.04141 1.62779 8.50049 1.62779H8.50006Z" fill="white"/>
</svg>
