<svg width="18" height="28" viewBox="0 0 18 28" fill="none" xmlns="http://www.w3.org/2000/svg">
<path d="M9.75625 1.0908C9.58514 0.702255 9.21317 0.453217 8.80368 0.453125C8.3941 0.453033 8.02187 0.701794 7.85076 1.09033C5.21307 7.08117 0.535156 14.792 0.535156 18.9859C0.535156 23.7547 4.23693 27.6204 8.80342 27.6204C13.3699 27.6204 17.0718 23.7546 17.0718 18.9859C17.0719 14.7923 12.394 7.08163 9.75625 1.0908ZM8.45025 24.8697C5.3953 24.8697 2.91 22.2743 2.91 19.0841C2.91 18.4476 3.40417 17.9315 4.01364 17.9315C4.62311 17.9315 5.11727 18.4476 5.11727 19.0841C5.11727 21.0032 6.61248 22.5647 8.45025 22.5647C9.05973 22.5647 9.55389 23.0807 9.55389 23.7172C9.55389 24.3538 9.05973 24.8697 8.45025 24.8697Z" fill="#36B0FD"/>
</svg>
