<svg xmlns="http://www.w3.org/2000/svg" width="18" height="20" viewBox="0 0 18 20" fill="none">
  <path d="M1.04111 0.201172C1.01658 0.201172 1.01658 0.201172 0.992053 0.201172C0.942998 0.201172 0.893942 0.2257 0.844887 0.250227H0.820359C0.820359 0.250227 0.820359 0.274755 0.795831 0.274755C0.746776 0.299283 0.69772 0.348338 0.673193 0.397394L0.648665 0.421921C0.624137 0.495504 0.599609 0.54456 0.599609 0.642671V16.3895C0.599609 16.4876 0.624137 16.5612 0.673193 16.6347C0.673193 16.6593 0.69772 16.6593 0.69772 16.6838C0.746776 16.7574 0.820359 16.8064 0.893942 16.831L8.44848 19.7743C8.49754 19.7988 8.57112 19.7988 8.62017 19.7988C8.71829 19.7988 8.8164 19.7743 8.88998 19.7252C9.01262 19.6271 9.0862 19.48 9.0862 19.3328V16.88H13.2559C13.5257 16.88 13.7219 16.6593 13.7219 16.414V10.9688C13.7219 10.699 13.5012 10.5028 13.2559 10.5028C12.9861 10.5028 12.7899 10.7236 12.7899 10.9688V15.948H9.11073V3.61053C9.11073 3.4143 8.98809 3.24261 8.8164 3.16903L3.61652 1.15775H12.8144V6.13688C12.8144 6.40669 13.0352 6.60291 13.2804 6.60291C13.5502 6.60291 13.7465 6.38216 13.7465 6.13688V0.667199C13.7465 0.397394 13.5257 0.201172 13.2804 0.201172H1.06564C1.04111 0.201172 1.04111 0.201172 1.04111 0.201172ZM1.53166 1.3785L8.15415 3.92939V16.3895C8.15415 16.3895 8.15415 16.3895 8.15415 16.414C8.15415 16.414 8.15415 16.414 8.15415 16.4385V18.6705L1.53166 16.1197V1.3785Z" fill="#D4D9EB"/>
  <path d="M15.0273 10.6244C15.1254 10.7225 15.248 10.7715 15.3707 10.7715C15.4933 10.7715 15.616 10.7225 15.7141 10.6244L17.4555 8.88292C17.6518 8.68669 17.6518 8.39236 17.4555 8.22067L15.7141 6.4792C15.5178 6.28298 15.2235 6.28298 15.0518 6.4792C14.8801 6.67542 14.8556 6.96975 15.0518 7.14145L15.9839 8.0735H11.0783C10.8085 8.0735 10.6123 8.29425 10.6123 8.53953C10.6123 8.80933 10.8331 9.00555 11.0783 9.00555H15.9593L15.0273 9.93761C14.8311 10.1584 14.8311 10.4527 15.0273 10.6244Z" fill="#D4D9EB"/>
</svg>