<svg width="38" height="48" viewBox="0 0 38 48" fill="none" xmlns="http://www.w3.org/2000/svg">
<path d="M18.9989 0C11.2322 0 4.86719 6.346 4.86719 14.0913C4.86719 17.0924 5.82574 19.8816 7.44786 22.174L17.2742 39.1614C18.6503 40.9592 19.5651 40.6177 20.7094 39.0664L31.5479 20.6221C31.7664 20.226 31.9384 19.8042 32.088 19.3734C32.7756 17.6972 33.1292 15.903 33.1292 14.0913C33.1297 6.346 26.7666 0 18.9989 0ZM18.9989 6.6025C23.1818 6.6025 26.5077 9.92085 26.5077 14.0913C26.5077 18.2619 23.1818 21.5793 18.9989 21.5793C14.8165 21.5793 11.4892 18.2628 11.4892 14.0918C11.4892 9.92085 14.8165 6.60297 18.9984 6.60297" fill="#D80E43"/>
<path d="M27.9837 23.2334L27.9609 23.2932L27.9808 23.2386L27.9837 23.2334ZM11.4029 32.8042C4.693 33.7523 0 36.0204 0 39.3592C0 43.8565 7.8413 47.5021 19 47.5021C30.1587 47.5021 38 43.8565 38 39.3592C38 36.0204 33.3075 33.7523 26.5981 32.8042L25.6685 34.3869C30.7254 35.0884 34.2 36.5628 34.2 38.2738C34.2 40.6726 27.3947 42.6167 19 42.6167C10.6053 42.6167 3.8 40.6726 3.8 38.2738C3.79953 36.5685 7.25135 35.0956 12.3239 34.3912L11.4029 32.8042Z" fill="#D80E43"/>
</svg>
