<svg width="142" height="48" viewBox="0 0 142 48" fill="none" xmlns="http://www.w3.org/2000/svg">
<g filter="url(#filter0_d_2788_5358)">
<rect x="8" y="4" width="126" height="32" rx="6" fill="#C62828" shape-rendering="crispEdges"/>
<path d="M26.5 12C22.0898 12 18.5 15.5898 18.5 20C18.5 24.4102 22.0898 28 26.5 28C30.9102 28 34.5 24.4102 34.5 20C34.5 15.5898 30.9102 12 26.5 12ZM30.0782 23.5782H22.922V16.422H30.0798V23.5782H30.0782Z" fill="white"/>
<path d="M44.35 25.14C43.5847 25.14 42.9313 25 42.39 24.72C41.8487 24.44 41.368 24.034 40.948 23.502L41.844 22.606C42.152 23.0353 42.5067 23.362 42.908 23.586C43.3093 23.8007 43.804 23.908 44.392 23.908C44.9707 23.908 45.4327 23.782 45.778 23.53C46.1327 23.278 46.31 22.9327 46.31 22.494C46.31 22.13 46.226 21.836 46.058 21.612C45.89 21.388 45.6613 21.206 45.372 21.066C45.092 20.9167 44.784 20.786 44.448 20.674C44.112 20.5527 43.776 20.4267 43.44 20.296C43.104 20.156 42.796 19.988 42.516 19.792C42.236 19.5867 42.0073 19.3207 41.83 18.994C41.662 18.6673 41.578 18.2567 41.578 17.762C41.578 17.2113 41.7087 16.7447 41.97 16.362C42.2407 15.97 42.6047 15.6713 43.062 15.466C43.5287 15.2513 44.0513 15.144 44.63 15.144C45.2647 15.144 45.834 15.27 46.338 15.522C46.842 15.7647 47.2527 16.0867 47.57 16.488L46.674 17.384C46.3847 17.048 46.072 16.796 45.736 16.628C45.4093 16.46 45.0313 16.376 44.602 16.376C44.0793 16.376 43.664 16.4927 43.356 16.726C43.048 16.95 42.894 17.2673 42.894 17.678C42.894 18.0047 42.978 18.2707 43.146 18.476C43.3233 18.672 43.552 18.84 43.832 18.98C44.112 19.12 44.42 19.2507 44.756 19.372C45.1013 19.484 45.442 19.61 45.778 19.75C46.114 19.89 46.422 20.0673 46.702 20.282C46.982 20.4967 47.206 20.7767 47.374 21.122C47.5513 21.458 47.64 21.8827 47.64 22.396C47.64 23.2547 47.3413 23.9267 46.744 24.412C46.156 24.8973 45.358 25.14 44.35 25.14ZM50.3516 25V15.564H51.6116V25H50.3516ZM48.7136 19.498V18.35H53.2496V19.498H48.7136ZM57.4568 25.14C56.8035 25.14 56.2155 24.986 55.6928 24.678C55.1702 24.37 54.7548 23.9547 54.4468 23.432C54.1388 22.9 53.9848 22.3073 53.9848 21.654C53.9848 21.01 54.1388 20.4313 54.4468 19.918C54.7548 19.3953 55.1702 18.98 55.6928 18.672C56.2155 18.364 56.8035 18.21 57.4568 18.21C58.1008 18.21 58.6842 18.364 59.2068 18.672C59.7388 18.9707 60.1588 19.3813 60.4668 19.904C60.7748 20.4267 60.9288 21.01 60.9288 21.654C60.9288 22.3073 60.7748 22.9 60.4668 23.432C60.1588 23.9547 59.7388 24.37 59.2068 24.678C58.6842 24.986 58.1008 25.14 57.4568 25.14ZM57.4568 23.922C57.8768 23.922 58.2502 23.824 58.5768 23.628C58.9035 23.432 59.1602 23.166 59.3468 22.83C59.5335 22.4847 59.6268 22.0927 59.6268 21.654C59.6268 21.2247 59.5288 20.842 59.3328 20.506C59.1462 20.17 58.8895 19.9087 58.5628 19.722C58.2455 19.526 57.8768 19.428 57.4568 19.428C57.0368 19.428 56.6635 19.526 56.3368 19.722C56.0102 19.9087 55.7535 20.17 55.5668 20.506C55.3802 20.842 55.2868 21.2247 55.2868 21.654C55.2868 22.0927 55.3802 22.4847 55.5668 22.83C55.7535 23.166 56.0102 23.432 56.3368 23.628C56.6635 23.824 57.0368 23.922 57.4568 23.922ZM65.9885 25.14C65.4845 25.14 65.0272 25.0373 64.6165 24.832C64.2152 24.6173 63.8932 24.3233 63.6505 23.95C63.4079 23.5767 63.2725 23.152 63.2445 22.676V20.674C63.2725 20.1887 63.4079 19.764 63.6505 19.4C63.9025 19.0267 64.2292 18.7373 64.6305 18.532C65.0412 18.3173 65.4939 18.21 65.9885 18.21C66.5952 18.21 67.1412 18.364 67.6265 18.672C68.1212 18.98 68.5085 19.3953 68.7885 19.918C69.0685 20.4407 69.2085 21.0287 69.2085 21.682C69.2085 22.3353 69.0685 22.9233 68.7885 23.446C68.5085 23.9687 68.1212 24.384 67.6265 24.692C67.1412 24.9907 66.5952 25.14 65.9885 25.14ZM62.4885 27.786V18.35H63.7485V20.1L63.5105 21.71L63.7485 23.334V27.786H62.4885ZM65.7785 23.95C66.1985 23.95 66.5672 23.852 66.8845 23.656C67.2019 23.46 67.4539 23.194 67.6405 22.858C67.8272 22.5127 67.9205 22.116 67.9205 21.668C67.9205 21.2293 67.8272 20.8373 67.6405 20.492C67.4539 20.1467 67.2019 19.8807 66.8845 19.694C66.5672 19.498 66.2032 19.4 65.7925 19.4C65.3725 19.4 65.0039 19.498 64.6865 19.694C64.3692 19.8807 64.1219 20.1467 63.9445 20.492C63.7672 20.8373 63.6785 21.234 63.6785 21.682C63.6785 22.1207 63.7625 22.5127 63.9305 22.858C64.1079 23.194 64.3552 23.46 64.6725 23.656C64.9992 23.852 65.3679 23.95 65.7785 23.95ZM75.4486 25.14C74.8886 25.14 74.3939 25.0327 73.9646 24.818C73.5446 24.594 73.1993 24.2953 72.9286 23.922L73.8526 23.068C74.0299 23.3293 74.2493 23.53 74.5106 23.67C74.7813 23.81 75.0799 23.88 75.4066 23.88C75.7333 23.88 76.0226 23.81 76.2746 23.67C76.5266 23.53 76.7226 23.3247 76.8626 23.054C77.0119 22.774 77.0866 22.4333 77.0866 22.032V15.284H78.4026V21.962C78.4026 22.606 78.2719 23.166 78.0106 23.642C77.7586 24.118 77.4086 24.4867 76.9606 24.748C76.5219 25.0093 76.0179 25.14 75.4486 25.14ZM83.5422 25.14C82.8889 25.14 82.3009 24.986 81.7782 24.678C81.2556 24.37 80.8402 23.9547 80.5322 23.432C80.2242 22.9 80.0702 22.3073 80.0702 21.654C80.0702 21.01 80.2242 20.4313 80.5322 19.918C80.8402 19.3953 81.2556 18.98 81.7782 18.672C82.3009 18.364 82.8889 18.21 83.5422 18.21C84.1862 18.21 84.7696 18.364 85.2922 18.672C85.8242 18.9707 86.2442 19.3813 86.5522 19.904C86.8602 20.4267 87.0142 21.01 87.0142 21.654C87.0142 22.3073 86.8602 22.9 86.5522 23.432C86.2442 23.9547 85.8242 24.37 85.2922 24.678C84.7696 24.986 84.1862 25.14 83.5422 25.14ZM83.5422 23.922C83.9622 23.922 84.3356 23.824 84.6622 23.628C84.9889 23.432 85.2456 23.166 85.4322 22.83C85.6189 22.4847 85.7122 22.0927 85.7122 21.654C85.7122 21.2247 85.6142 20.842 85.4182 20.506C85.2316 20.17 84.9749 19.9087 84.6482 19.722C84.3309 19.526 83.9622 19.428 83.5422 19.428C83.1222 19.428 82.7489 19.526 82.4222 19.722C82.0956 19.9087 81.8389 20.17 81.6522 20.506C81.4656 20.842 81.3722 21.2247 81.3722 21.654C81.3722 22.0927 81.4656 22.4847 81.6522 22.83C81.8389 23.166 82.0956 23.432 82.4222 23.628C82.7489 23.824 83.1222 23.922 83.5422 23.922ZM91.2479 25.14C90.7066 25.14 90.2166 25.0187 89.7779 24.776C89.3486 24.524 89.0126 24.1787 88.7699 23.74C88.5273 23.3013 88.4059 22.7927 88.4059 22.214V18.35H89.6659V22.158C89.6659 22.522 89.7266 22.8393 89.8479 23.11C89.9786 23.3713 90.1653 23.572 90.4079 23.712C90.6506 23.852 90.9353 23.922 91.2619 23.922C91.7566 23.922 92.1439 23.768 92.4239 23.46C92.7039 23.1427 92.8439 22.7087 92.8439 22.158V18.35H94.1039V22.214C94.1039 22.7927 93.9826 23.3013 93.7399 23.74C93.4973 24.1787 93.1613 24.524 92.7319 24.776C92.3119 25.0187 91.8173 25.14 91.2479 25.14ZM95.9327 25V18.35H97.1927V25H95.9327ZM97.1927 21.206L96.7167 20.996C96.7167 20.1467 96.9127 19.47 97.3047 18.966C97.6967 18.462 98.2613 18.21 98.9987 18.21C99.3347 18.21 99.638 18.2707 99.9087 18.392C100.179 18.504 100.431 18.6953 100.665 18.966L99.8387 19.82C99.6987 19.6707 99.5447 19.5633 99.3767 19.498C99.2087 19.4327 99.0127 19.4 98.7887 19.4C98.322 19.4 97.9393 19.5493 97.6407 19.848C97.342 20.1467 97.1927 20.5993 97.1927 21.206ZM106.423 25V21.122C106.423 20.618 106.264 20.2027 105.947 19.876C105.63 19.5493 105.219 19.386 104.715 19.386C104.379 19.386 104.08 19.4607 103.819 19.61C103.558 19.7593 103.352 19.9647 103.203 20.226C103.054 20.4873 102.979 20.786 102.979 21.122L102.461 20.828C102.461 20.324 102.573 19.876 102.797 19.484C103.021 19.092 103.334 18.784 103.735 18.56C104.136 18.3267 104.589 18.21 105.093 18.21C105.597 18.21 106.04 18.336 106.423 18.588C106.815 18.84 107.123 19.1713 107.347 19.582C107.571 19.9833 107.683 20.4127 107.683 20.87V25H106.423ZM101.719 25V18.35H102.979V25H101.719ZM112.609 25.14C111.946 25.14 111.349 24.9907 110.817 24.692C110.285 24.384 109.865 23.9687 109.557 23.446C109.249 22.9233 109.095 22.3307 109.095 21.668C109.095 21.0147 109.244 20.4267 109.543 19.904C109.851 19.3813 110.262 18.9707 110.775 18.672C111.298 18.364 111.881 18.21 112.525 18.21C113.141 18.21 113.682 18.35 114.149 18.63C114.625 18.91 114.994 19.2973 115.255 19.792C115.526 20.2867 115.661 20.8467 115.661 21.472C115.661 21.5653 115.656 21.668 115.647 21.78C115.638 21.8827 115.619 22.004 115.591 22.144H109.977V21.094H114.919L114.457 21.5C114.457 21.052 114.378 20.674 114.219 20.366C114.06 20.0487 113.836 19.806 113.547 19.638C113.258 19.4607 112.908 19.372 112.497 19.372C112.068 19.372 111.69 19.4653 111.363 19.652C111.036 19.8387 110.784 20.1 110.607 20.436C110.43 20.772 110.341 21.1687 110.341 21.626C110.341 22.0927 110.434 22.5033 110.621 22.858C110.808 23.2033 111.074 23.474 111.419 23.67C111.764 23.8567 112.161 23.95 112.609 23.95C112.982 23.95 113.323 23.8847 113.631 23.754C113.948 23.6233 114.219 23.4273 114.443 23.166L115.255 23.992C114.938 24.3653 114.546 24.65 114.079 24.846C113.622 25.042 113.132 25.14 112.609 25.14ZM119.25 25.056L116.366 18.35H117.766L119.908 23.6H119.46L121.714 18.35H123.114L120.006 25.056H119.25ZM117.346 27.786L119.306 23.768L120.006 25.056L118.746 27.786H117.346Z" fill="white"/>
</g>
<defs>
<filter id="filter0_d_2788_5358" x="0" y="0" width="142" height="48" filterUnits="userSpaceOnUse" color-interpolation-filters="sRGB">
<feFlood flood-opacity="0" result="BackgroundImageFix"/>
<feColorMatrix in="SourceAlpha" type="matrix" values="0 0 0 0 0 0 0 0 0 0 0 0 0 0 0 0 0 0 127 0" result="hardAlpha"/>
<feOffset dy="4"/>
<feGaussianBlur stdDeviation="4"/>
<feComposite in2="hardAlpha" operator="out"/>
<feColorMatrix type="matrix" values="0 0 0 0 0.381667 0 0 0 0 0.182182 0 0 0 0 0.0610667 0 0 0 0.2 0"/>
<feBlend mode="normal" in2="BackgroundImageFix" result="effect1_dropShadow_2788_5358"/>
<feBlend mode="normal" in="SourceGraphic" in2="effect1_dropShadow_2788_5358" result="shape"/>
</filter>
</defs>
</svg>
