<svg width="142" height="48" viewBox="0 0 142 48" fill="none" xmlns="http://www.w3.org/2000/svg">
<g filter="url(#filter0_d_2788_5370)">
<rect x="8" y="4" width="126" height="32" rx="6" fill="#2E7D32" shape-rendering="crispEdges"/>
<path d="M25 12C20.5874 12 17 15.5874 17 20C17 24.4126 20.5874 28 25 28C29.4126 28 33 24.4126 33 20C33 15.5874 29.4126 12 25 12ZM28.4189 20.7411L23.72 23.6379C23.1474 23.9916 22.3895 23.5705 22.3895 22.8968V17.1032C22.3895 16.4295 23.1305 16.0084 23.72 16.3621L28.4189 19.2589C28.9747 19.5958 28.9747 20.4042 28.4189 20.7411Z" fill="white"/>
<path d="M42.85 25.14C42.0847 25.14 41.4313 25 40.89 24.72C40.3487 24.44 39.868 24.034 39.448 23.502L40.344 22.606C40.652 23.0353 41.0067 23.362 41.408 23.586C41.8093 23.8007 42.304 23.908 42.892 23.908C43.4707 23.908 43.9327 23.782 44.278 23.53C44.6327 23.278 44.81 22.9327 44.81 22.494C44.81 22.13 44.726 21.836 44.558 21.612C44.39 21.388 44.1613 21.206 43.872 21.066C43.592 20.9167 43.284 20.786 42.948 20.674C42.612 20.5527 42.276 20.4267 41.94 20.296C41.604 20.156 41.296 19.988 41.016 19.792C40.736 19.5867 40.5073 19.3207 40.33 18.994C40.162 18.6673 40.078 18.2567 40.078 17.762C40.078 17.2113 40.2087 16.7447 40.47 16.362C40.7407 15.97 41.1047 15.6713 41.562 15.466C42.0287 15.2513 42.5513 15.144 43.13 15.144C43.7647 15.144 44.334 15.27 44.838 15.522C45.342 15.7647 45.7527 16.0867 46.07 16.488L45.174 17.384C44.8847 17.048 44.572 16.796 44.236 16.628C43.9093 16.46 43.5313 16.376 43.102 16.376C42.5793 16.376 42.164 16.4927 41.856 16.726C41.548 16.95 41.394 17.2673 41.394 17.678C41.394 18.0047 41.478 18.2707 41.646 18.476C41.8233 18.672 42.052 18.84 42.332 18.98C42.612 19.12 42.92 19.2507 43.256 19.372C43.6013 19.484 43.942 19.61 44.278 19.75C44.614 19.89 44.922 20.0673 45.202 20.282C45.482 20.4967 45.706 20.7767 45.874 21.122C46.0513 21.458 46.14 21.8827 46.14 22.396C46.14 23.2547 45.8413 23.9267 45.244 24.412C44.656 24.8973 43.858 25.14 42.85 25.14ZM48.8516 25V15.564H50.1116V25H48.8516ZM47.2136 19.498V18.35H51.7496V19.498H47.2136ZM55.7468 25.14C55.1402 25.14 54.5895 24.9907 54.0948 24.692C53.6002 24.384 53.2082 23.9687 52.9188 23.446C52.6388 22.9233 52.4988 22.3353 52.4988 21.682C52.4988 21.0287 52.6388 20.4407 52.9188 19.918C53.2082 19.3953 53.5955 18.98 54.0808 18.672C54.5755 18.364 55.1308 18.21 55.7468 18.21C56.2508 18.21 56.6988 18.3173 57.0908 18.532C57.4922 18.7373 57.8142 19.0267 58.0568 19.4C58.2995 19.764 58.4348 20.1887 58.4628 20.674V22.676C58.4348 23.152 58.2995 23.5767 58.0568 23.95C57.8235 24.3233 57.5062 24.6173 57.1048 24.832C56.7128 25.0373 56.2602 25.14 55.7468 25.14ZM55.9568 23.95C56.5822 23.95 57.0862 23.74 57.4688 23.32C57.8515 22.8907 58.0428 22.3447 58.0428 21.682C58.0428 21.2247 57.9542 20.828 57.7768 20.492C57.6088 20.1467 57.3662 19.8807 57.0488 19.694C56.7315 19.498 56.3628 19.4 55.9428 19.4C55.5228 19.4 55.1495 19.498 54.8228 19.694C54.5055 19.89 54.2535 20.1607 54.0668 20.506C53.8895 20.842 53.8008 21.2293 53.8008 21.668C53.8008 22.116 53.8895 22.5127 54.0668 22.858C54.2535 23.194 54.5102 23.46 54.8368 23.656C55.1635 23.852 55.5368 23.95 55.9568 23.95ZM57.9588 25V23.208L58.1968 21.584L57.9588 19.974V18.35H59.2328V25H57.9588ZM61.2073 25V18.35H62.4673V25H61.2073ZM62.4673 21.206L61.9913 20.996C61.9913 20.1467 62.1873 19.47 62.5793 18.966C62.9713 18.462 63.5359 18.21 64.2733 18.21C64.6093 18.21 64.9126 18.2707 65.1833 18.392C65.4539 18.504 65.7059 18.6953 65.9393 18.966L65.1133 19.82C64.9733 19.6707 64.8193 19.5633 64.6513 19.498C64.4833 19.4327 64.2873 19.4 64.0633 19.4C63.5966 19.4 63.2139 19.5493 62.9153 19.848C62.6166 20.1467 62.4673 20.5993 62.4673 21.206ZM67.9611 25V15.564H69.2211V25H67.9611ZM66.3231 19.498V18.35H70.8591V19.498H66.3231ZM76.905 25.14C76.345 25.14 75.8503 25.0327 75.421 24.818C75.001 24.594 74.6557 24.2953 74.385 23.922L75.309 23.068C75.4863 23.3293 75.7057 23.53 75.967 23.67C76.2377 23.81 76.5363 23.88 76.863 23.88C77.1897 23.88 77.479 23.81 77.731 23.67C77.983 23.53 78.179 23.3247 78.319 23.054C78.4683 22.774 78.543 22.4333 78.543 22.032V15.284H79.859V21.962C79.859 22.606 79.7283 23.166 79.467 23.642C79.215 24.118 78.865 24.4867 78.417 24.748C77.9783 25.0093 77.4743 25.14 76.905 25.14ZM84.9986 25.14C84.3453 25.14 83.7573 24.986 83.2346 24.678C82.712 24.37 82.2966 23.9547 81.9886 23.432C81.6806 22.9 81.5266 22.3073 81.5266 21.654C81.5266 21.01 81.6806 20.4313 81.9886 19.918C82.2966 19.3953 82.712 18.98 83.2346 18.672C83.7573 18.364 84.3453 18.21 84.9986 18.21C85.6426 18.21 86.226 18.364 86.7486 18.672C87.2806 18.9707 87.7006 19.3813 88.0086 19.904C88.3166 20.4267 88.4706 21.01 88.4706 21.654C88.4706 22.3073 88.3166 22.9 88.0086 23.432C87.7006 23.9547 87.2806 24.37 86.7486 24.678C86.226 24.986 85.6426 25.14 84.9986 25.14ZM84.9986 23.922C85.4186 23.922 85.792 23.824 86.1186 23.628C86.4453 23.432 86.702 23.166 86.8886 22.83C87.0753 22.4847 87.1686 22.0927 87.1686 21.654C87.1686 21.2247 87.0706 20.842 86.8746 20.506C86.688 20.17 86.4313 19.9087 86.1046 19.722C85.7873 19.526 85.4186 19.428 84.9986 19.428C84.5786 19.428 84.2053 19.526 83.8786 19.722C83.552 19.9087 83.2953 20.17 83.1086 20.506C82.922 20.842 82.8286 21.2247 82.8286 21.654C82.8286 22.0927 82.922 22.4847 83.1086 22.83C83.2953 23.166 83.552 23.432 83.8786 23.628C84.2053 23.824 84.5786 23.922 84.9986 23.922ZM92.7043 25.14C92.163 25.14 91.673 25.0187 91.2343 24.776C90.805 24.524 90.469 24.1787 90.2263 23.74C89.9837 23.3013 89.8623 22.7927 89.8623 22.214V18.35H91.1223V22.158C91.1223 22.522 91.183 22.8393 91.3043 23.11C91.435 23.3713 91.6217 23.572 91.8643 23.712C92.107 23.852 92.3917 23.922 92.7183 23.922C93.213 23.922 93.6003 23.768 93.8803 23.46C94.1603 23.1427 94.3003 22.7087 94.3003 22.158V18.35H95.5603V22.214C95.5603 22.7927 95.439 23.3013 95.1963 23.74C94.9537 24.1787 94.6177 24.524 94.1883 24.776C93.7683 25.0187 93.2737 25.14 92.7043 25.14ZM97.3891 25V18.35H98.6491V25H97.3891ZM98.6491 21.206L98.1731 20.996C98.1731 20.1467 98.3691 19.47 98.7611 18.966C99.1531 18.462 99.7177 18.21 100.455 18.21C100.791 18.21 101.094 18.2707 101.365 18.392C101.636 18.504 101.888 18.6953 102.121 18.966L101.295 19.82C101.155 19.6707 101.001 19.5633 100.833 19.498C100.665 19.4327 100.469 19.4 100.245 19.4C99.7784 19.4 99.3957 19.5493 99.0971 19.848C98.7984 20.1467 98.6491 20.5993 98.6491 21.206ZM107.88 25V21.122C107.88 20.618 107.721 20.2027 107.404 19.876C107.086 19.5493 106.676 19.386 106.172 19.386C105.836 19.386 105.537 19.4607 105.276 19.61C105.014 19.7593 104.809 19.9647 104.66 20.226C104.51 20.4873 104.436 20.786 104.436 21.122L103.918 20.828C103.918 20.324 104.03 19.876 104.254 19.484C104.478 19.092 104.79 18.784 105.192 18.56C105.593 18.3267 106.046 18.21 106.55 18.21C107.054 18.21 107.497 18.336 107.88 18.588C108.272 18.84 108.58 19.1713 108.804 19.582C109.028 19.9833 109.14 20.4127 109.14 20.87V25H107.88ZM103.176 25V18.35H104.436V25H103.176ZM114.065 25.14C113.403 25.14 112.805 24.9907 112.273 24.692C111.741 24.384 111.321 23.9687 111.013 23.446C110.705 22.9233 110.551 22.3307 110.551 21.668C110.551 21.0147 110.701 20.4267 110.999 19.904C111.307 19.3813 111.718 18.9707 112.231 18.672C112.754 18.364 113.337 18.21 113.981 18.21C114.597 18.21 115.139 18.35 115.605 18.63C116.081 18.91 116.45 19.2973 116.711 19.792C116.982 20.2867 117.117 20.8467 117.117 21.472C117.117 21.5653 117.113 21.668 117.103 21.78C117.094 21.8827 117.075 22.004 117.047 22.144H111.433V21.094H116.375L115.913 21.5C115.913 21.052 115.834 20.674 115.675 20.366C115.517 20.0487 115.293 19.806 115.003 19.638C114.714 19.4607 114.364 19.372 113.953 19.372C113.524 19.372 113.146 19.4653 112.819 19.652C112.493 19.8387 112.241 20.1 112.063 20.436C111.886 20.772 111.797 21.1687 111.797 21.626C111.797 22.0927 111.891 22.5033 112.077 22.858C112.264 23.2033 112.53 23.474 112.875 23.67C113.221 23.8567 113.617 23.95 114.065 23.95C114.439 23.95 114.779 23.8847 115.087 23.754C115.405 23.6233 115.675 23.4273 115.899 23.166L116.711 23.992C116.394 24.3653 116.002 24.65 115.535 24.846C115.078 25.042 114.588 25.14 114.065 25.14ZM120.706 25.056L117.822 18.35H119.222L121.364 23.6H120.916L123.17 18.35H124.57L121.462 25.056H120.706ZM118.802 27.786L120.762 23.768L121.462 25.056L120.202 27.786H118.802Z" fill="white"/>
</g>
<defs>
<filter id="filter0_d_2788_5370" x="0" y="0" width="142" height="48" filterUnits="userSpaceOnUse" color-interpolation-filters="sRGB">
<feFlood flood-opacity="0" result="BackgroundImageFix"/>
<feColorMatrix in="SourceAlpha" type="matrix" values="0 0 0 0 0 0 0 0 0 0 0 0 0 0 0 0 0 0 127 0" result="hardAlpha"/>
<feOffset dy="4"/>
<feGaussianBlur stdDeviation="4"/>
<feComposite in2="hardAlpha" operator="out"/>
<feColorMatrix type="matrix" values="0 0 0 0 0.381667 0 0 0 0 0.182182 0 0 0 0 0.0610667 0 0 0 0.2 0"/>
<feBlend mode="normal" in2="BackgroundImageFix" result="effect1_dropShadow_2788_5370"/>
<feBlend mode="normal" in="SourceGraphic" in2="effect1_dropShadow_2788_5370" result="shape"/>
</filter>
</defs>
</svg>
