<svg width="32" height="39" viewBox="0 0 32 39" fill="none" xmlns="http://www.w3.org/2000/svg">
<path opacity="0.5" d="M24.5714 24.125L23.0607 25.7553L26.8964 29.9062H9.57143C8.43479 29.9062 7.3447 29.419 6.54097 28.5516C5.73724 27.6843 5.28571 26.5079 5.28571 25.2812C5.28571 24.0546 5.73724 22.8782 6.54097 22.0109C7.3447 21.1435 8.43479 20.6562 9.57143 20.6562H22.4286C24.1335 20.6562 25.7687 19.9253 26.9743 18.6243C28.1799 17.3233 28.8571 15.5587 28.8571 13.7188C28.8571 11.8788 28.1799 10.1142 26.9743 8.8132C25.7687 7.51216 24.1335 6.78125 22.4286 6.78125H5.10357L8.93929 2.63031L7.42857 1L1 7.9375L7.42857 14.875L8.93929 13.2447L5.10357 9.09375H22.4286C23.5652 9.09375 24.6553 9.58103 25.459 10.4484C26.2628 11.3157 26.7143 12.4921 26.7143 13.7188C26.7143 14.9454 26.2628 16.1218 25.459 16.9891C24.6553 17.8565 23.5652 18.3438 22.4286 18.3438H9.57143C7.86647 18.3438 6.23133 19.0747 5.02574 20.3757C3.82015 21.6767 3.14286 23.4413 3.14286 25.2812C3.14286 27.1212 3.82015 28.8858 5.02574 30.1868C6.23133 31.4878 7.86647 32.2188 9.57143 32.2188H26.8964L23.0607 36.3697L24.5714 38L31 31.0625L24.5714 24.125Z" fill="#0C7001" stroke="#0C7001" stroke-width="0.912436"/>
</svg>
