<svg width="70" height="71" viewBox="0 0 70 71" fill="none" xmlns="http://www.w3.org/2000/svg">
<g filter="url(#filter0_d_511_20142)">
<circle cx="35" cy="34" r="25" fill="white"/>
</g>
<path d="M40.6448 37.0507L39.6494 38.1266L42.1768 40.8661H30.7611C30.0122 40.8661 29.2939 40.5445 28.7643 39.9721C28.2347 39.3997 27.9372 38.6233 27.9372 37.8138C27.9372 37.0042 28.2347 36.2279 28.7643 35.6555C29.2939 35.083 30.0122 34.7614 30.7611 34.7614H39.2329C40.3563 34.7614 41.4337 34.2791 42.2281 33.4204C43.0225 32.5618 43.4688 31.3973 43.4688 30.183C43.4688 28.9687 43.0225 27.8041 42.2281 26.9455C41.4337 26.0868 40.3563 25.6045 39.2329 25.6045H27.8172L30.3446 22.865L29.3492 21.7891L25.1133 26.3676L29.3492 30.946L30.3446 29.8701L27.8172 27.1306H39.2329C39.9818 27.1306 40.7001 27.4522 41.2297 28.0246C41.7593 28.5971 42.0568 29.3734 42.0568 30.183C42.0568 30.9925 41.7593 31.7689 41.2297 32.3413C40.7001 32.9137 39.9818 33.2353 39.2329 33.2353H30.7611C29.6377 33.2353 28.5603 33.7177 27.7659 34.5763C26.9715 35.4349 26.5252 36.5995 26.5252 37.8138C26.5252 39.0281 26.9715 40.1926 27.7659 41.0513C28.5603 41.9099 29.6377 42.3923 30.7611 42.3923H42.1768L39.6494 45.1317L40.6448 46.2077L44.8807 41.6292L40.6448 37.0507Z" fill="#1A9F0B" stroke="#1A9F0B" stroke-width="0.580149"/>
<defs>
<filter id="filter0_d_511_20142" x="0.298617" y="0.684529" width="69.4028" height="69.4028" filterUnits="userSpaceOnUse" color-interpolation-filters="sRGB">
<feFlood flood-opacity="0" result="BackgroundImageFix"/>
<feColorMatrix in="SourceAlpha" type="matrix" values="0 0 0 0 0 0 0 0 0 0 0 0 0 0 0 0 0 0 127 0" result="hardAlpha"/>
<feOffset dy="1.38591"/>
<feGaussianBlur stdDeviation="4.85069"/>
<feComposite in2="hardAlpha" operator="out"/>
<feColorMatrix type="matrix" values="0 0 0 0 0.101961 0 0 0 0 0.623529 0 0 0 0 0.0431373 0 0 0 0.2 0"/>
<feBlend mode="normal" in2="BackgroundImageFix" result="effect1_dropShadow_511_20142"/>
<feBlend mode="normal" in="SourceGraphic" in2="effect1_dropShadow_511_20142" result="shape"/>
</filter>
</defs>
</svg>
