<svg width="24" height="39" viewBox="0 0 24 39" fill="none" xmlns="http://www.w3.org/2000/svg">
<path opacity="0.7" d="M5.80316 2.14906C5.80316 1.55576 6.02985 1.04922 6.48322 0.629429C6.93659 0.20964 7.48366 -0.00025177 8.12443 -0.00025177H15.0882C15.729 -0.00025177 16.2761 0.20964 16.7294 0.629429C17.1828 1.04922 17.4095 1.55576 17.4095 2.14906H20.3111C21.109 2.14906 21.7921 2.41213 22.3603 2.93826C22.9285 3.4644 23.2127 4.09688 23.2127 4.83571L23.2127 36.0009C23.2127 36.7397 22.9285 37.3722 22.3603 37.8983C21.7921 38.4244 21.109 38.6875 20.3111 38.6875H2.90158C2.10365 38.6875 1.42057 38.4244 0.85234 37.8983C0.284113 37.3722 0 36.7397 0 36.0009L0 4.83571C0 4.09688 0.284113 3.4644 0.85234 2.93826C1.42057 2.41213 2.10365 2.14906 2.90158 2.14906H5.80316ZM15.0882 4.29839H8.28752H8.12443H2.90158C2.73232 4.29839 2.59329 4.34876 2.48448 4.4495C2.37567 4.55025 2.32127 4.67899 2.32127 4.83571L2.32127 36.0009C2.32127 36.1576 2.37567 36.2863 2.48448 36.3871C2.59329 36.4878 2.73232 36.5382 2.90158 36.5382H20.3111C20.4803 36.5382 20.6194 36.4878 20.7282 36.3871C20.837 36.2863 20.8914 36.1576 20.8914 36.0009L20.8914 4.83571C20.8914 4.67899 20.837 4.55025 20.7282 4.4495C20.6194 4.34876 20.4803 4.29839 20.3111 4.29839H15.0882Z" fill="#16586F"/>
</svg>
