<svg width="22" height="27" viewBox="0 0 22 27" fill="none" xmlns="http://www.w3.org/2000/svg">
<path d="M19.5829 17.2462C19.2097 17.0647 18.8949 16.7821 18.6742 16.4307C18.4535 16.0792 18.3358 15.6729 18.3345 15.2579V11.7244C18.353 10.0611 17.8114 8.43996 16.7969 7.12178C15.7823 5.8036 14.3538 4.86507 12.7412 4.45723C13.0136 4.09657 13.1612 3.65707 13.1619 3.2051C13.1619 2.64721 12.9402 2.11217 12.5458 1.71767C12.1513 1.32318 11.6162 1.10156 11.0583 1.10156C10.5004 1.10156 9.96539 1.32318 9.5709 1.71767C9.17641 2.11217 8.95479 2.64721 8.95479 3.2051C8.95543 3.65707 9.1031 4.09657 9.37549 4.45723C7.78231 4.83395 6.36307 5.73773 5.34784 7.02204C4.33261 8.30635 3.78091 9.8959 3.78218 11.533V15.2568C3.78102 15.672 3.66341 16.0785 3.44271 16.4302C3.22202 16.7819 2.90709 17.0646 2.53373 17.2462C1.98251 17.5139 1.51744 17.9308 1.19142 18.4497C0.865387 18.9685 0.691475 19.5684 0.689453 20.1812C0.690704 20.9783 1.00783 21.7424 1.57135 22.3061C2.13487 22.8698 2.89886 23.1872 3.69594 23.1887H7.4192C7.54494 24.0643 7.98211 24.8651 8.65053 25.4444C9.31896 26.0237 10.1738 26.3426 11.0583 26.3426C11.9428 26.3426 12.7977 26.0237 13.4661 25.4444C14.1345 24.8651 14.5717 24.0643 14.6974 23.1887H18.4207C19.2183 23.1878 19.983 22.8705 20.547 22.3065C21.111 21.7425 21.4283 20.9778 21.4293 20.1801C21.4269 19.5673 21.2526 18.9675 20.9262 18.4488C20.5998 17.9302 20.1344 17.5135 19.5829 17.2462ZM11.0583 2.15333C11.2663 2.15333 11.4697 2.21502 11.6427 2.33059C11.8156 2.44616 11.9504 2.61042 12.03 2.80261C12.1096 2.99479 12.1305 3.20627 12.0899 3.41029C12.0493 3.61432 11.9491 3.80172 11.802 3.94882C11.6549 4.09591 11.4675 4.19608 11.2635 4.23666C11.0595 4.27725 10.848 4.25642 10.6558 4.17681C10.4636 4.09721 10.2994 3.9624 10.1838 3.78943C10.0682 3.61647 10.0066 3.41312 10.0066 3.2051C10.0066 2.92616 10.1174 2.65863 10.3146 2.46139C10.5119 2.26414 10.7794 2.15333 11.0583 2.15333ZM11.0583 25.2923C10.4524 25.2915 9.86526 25.0819 9.39587 24.6987C8.92648 24.3155 8.60355 23.7822 8.48149 23.1887H13.6352C13.5131 23.7822 13.1902 24.3155 12.7208 24.6987C12.2514 25.0819 11.6643 25.2915 11.0583 25.2923ZM18.4207 22.137H3.69594C3.17713 22.1364 2.67973 21.9301 2.31287 21.5632C1.94602 21.1964 1.73968 20.699 1.73912 20.1801C1.74068 19.765 1.85872 19.3587 2.0798 19.0074C2.30088 18.6561 2.61612 18.3738 2.98967 18.1928C3.54094 17.9249 4.00601 17.5078 4.33203 16.9888C4.65805 16.4698 4.83194 15.8697 4.83395 15.2568V11.533C4.83395 9.88276 5.4893 8.30004 6.65591 7.13283C7.82253 5.96563 9.40491 5.30948 11.0552 5.30864C11.1567 5.30864 11.2582 5.30864 11.3597 5.316C12.9821 5.41624 14.5033 6.1384 15.6066 7.33213C16.7099 8.52586 17.3103 10.0992 17.2827 11.7244V15.2579C17.2849 15.8706 17.4589 16.4704 17.7849 16.9892C18.1109 17.508 18.5759 17.925 19.127 18.1928C19.5001 18.3741 19.8149 18.6565 20.0356 19.0078C20.2563 19.3591 20.3741 19.7653 20.3754 20.1801C20.3749 20.6986 20.1688 21.1957 19.8024 21.5625C19.436 21.9293 18.9392 22.1358 18.4207 22.137Z" fill="#FEA44C" stroke="#FEA44C" stroke-width="0.679565"/>
</svg>
