<svg width="36" height="37" viewBox="0 0 36 37" fill="none" xmlns="http://www.w3.org/2000/svg">
<path d="M18 0C13.2266 0 8.64823 1.94912 5.27122 5.41765C1.89623 8.88803 0 13.594 0 18.5C0 23.406 1.89644 28.1115 5.27122 31.5824C8.64782 35.0511 13.2266 37 18 37C22.7734 37 27.3518 35.0509 30.7288 31.5824C34.1038 28.112 36 23.406 36 18.5C36 13.594 34.1036 8.88846 30.7288 5.41765C27.3522 1.94891 22.7734 0 18 0ZM18 34.3571C13.9082 34.3571 9.98373 32.6872 7.09056 29.7125C4.19608 26.7393 2.57143 22.7057 2.57143 18.5C2.57143 14.2943 4.19624 10.2611 7.09056 7.28752C9.9834 4.31263 13.9079 2.64286 18 2.64286C22.0921 2.64286 26.0163 4.3128 28.9094 7.28752C31.8039 10.2607 33.4286 14.2943 33.4286 18.5C33.4286 22.7057 31.8038 26.7389 28.9094 29.7125C26.0166 32.6874 22.0921 34.3571 18 34.3571ZM19.2857 6.60714V17.4031C19.2841 18.4537 18.8775 19.4612 18.1543 20.2045L12.4844 26.045C12.2433 26.2945 11.9139 26.4365 11.5715 26.4365C11.2292 26.4365 10.8997 26.2945 10.6586 26.045C10.416 25.7973 10.2777 25.4587 10.2777 25.1068C10.2777 24.7549 10.416 24.4164 10.6586 24.1686L16.3413 18.3412C16.5824 18.0918 16.7157 17.7548 16.7141 17.4029V6.60697C16.7141 5.87687 17.2895 5.28554 17.9999 5.28554C18.7102 5.28554 19.2857 5.87704 19.2857 6.60714Z" fill="#CCC626"/>
</svg>
