<svg width="10" height="10" viewBox="0 0 10 10" fill="none" xmlns="http://www.w3.org/2000/svg">
<path d="M4.96421 1.49379L5 1.4114V0.116027C5 0.0153267 4.87473 -0.0396008 4.80314 0.0336359L0.0338263 4.91761C-0.010914 4.96338 -0.010914 5.03662 0.0338263 5.08239L4.80314 9.96636C4.87473 10.0396 5 9.98467 5 9.88397L4.99553 8.55198C4.94631 8.40551 1.91292 5.37992 1.5371 5L4.96421 1.49379Z" fill="black"/>
<path d="M9.96421 1.49379L10 1.4114V0.116027C10 0.0153267 9.87472 -0.0396008 9.80313 0.0336359L5.03356 4.91761C4.98881 4.96338 4.98881 5.03662 5.03356 5.08239L9.80313 9.96636C9.87472 10.0396 10 9.98467 10 9.88397L9.99553 8.55198C9.94631 8.40551 6.91275 5.37992 6.53691 5L9.96421 1.49379Z" fill="black"/>
</svg>
