<svg width="16" height="16" viewBox="0 0 16 16" fill="none" xmlns="http://www.w3.org/2000/svg">
<path d="M0.0763609 13.6099L0 13.7418V15.8144C0 15.9755 0.267263 16.0634 0.419985 15.9462L10.5951 8.13183C10.6905 8.05859 10.6905 7.94141 10.5951 7.86817L0.419985 0.0538173C0.267263 -0.0633615 0 0.0245223 0 0.185643L0.00954512 2.31683C0.114541 2.55119 6.58613 7.39214 7.38792 8L0.0763609 13.6099Z" fill="black"/>
<path d="M5.40839 13.6099L5.33203 13.7418V15.8144C5.33203 15.9755 5.59929 16.0634 5.75202 15.9462L15.9271 8.13183C16.0226 8.05859 16.0226 7.94141 15.9271 7.86817L5.75202 0.0538173C5.59929 -0.0633615 5.33203 0.0245223 5.33203 0.185643L5.34158 2.31683C5.44657 2.55119 11.9182 7.39214 12.72 8L5.40839 13.6099Z" fill="black"/>
</svg>
