<svg width="24" height="24" viewBox="0 0 24 24" fill="none" xmlns="http://www.w3.org/2000/svg">
<path opacity="0.6" d="M22.08 24L14.4082 16.3666C13.7088 16.9262 12.9045 17.3691 11.9952 17.6955C11.0859 18.0219 10.1184 18.1851 9.09257 18.1851C6.55131 18.1851 4.4008 17.3048 2.64104 15.5441C0.88128 13.7834 0.000932571 11.6329 0 9.09257C0 6.55131 0.880347 4.4008 2.64104 2.64104C4.40174 0.88128 6.55225 0.000932571 9.09257 0C11.6338 0 13.7843 0.880347 15.5441 2.64104C17.3039 4.40174 18.1842 6.55225 18.1851 9.09257C18.1851 10.1184 18.0219 11.0859 17.6955 11.9952C17.3691 12.9045 16.9262 13.7088 16.3666 14.4082L24 22.08L23.04 23.04L22.08 24ZM9.09257 15.3874C10.8411 15.3874 12.3277 14.7752 13.5521 13.5507C14.7766 12.3263 15.3884 10.8402 15.3874 9.09257C15.3874 7.344 14.7752 5.85748 13.5507 4.63301C12.3263 3.40855 10.8402 2.79678 9.09257 2.79771C7.344 2.79771 5.85748 3.40995 4.63301 4.63441C3.40855 5.85888 2.79678 7.34493 2.79771 9.09257C2.79771 10.8411 3.40995 12.3277 4.63441 13.5521C5.85888 14.7766 7.34493 15.3884 9.09257 15.3874Z" fill="#7D7D7D"/>
</svg>
