<svg width="12" height="13" viewBox="0 0 12 13" fill="none" xmlns="http://www.w3.org/2000/svg">
<path d="M9.11806 9.04827C10.0736 8.10088 10.6685 6.78967 10.6685 5.34073C10.6666 2.46289 8.32601 0.121094 5.44751 0.121094C2.56838 0.121094 0.226562 2.46289 0.226562 5.34201C0.226562 8.22114 2.56838 10.5612 5.44575 10.5612C6.52964 10.5612 7.53589 10.2293 8.37121 9.66199L10.8046 12.1817L11.4971 11.513L9.11806 9.04827ZM1.18821 5.34201C1.18821 2.99396 3.09866 1.08288 5.44737 1.08288C7.79543 1.08288 9.70476 2.99396 9.70476 5.34201C9.70476 7.69007 7.79367 9.59938 5.44737 9.59938C3.10042 9.59938 1.18821 7.68894 1.18821 5.34201Z" fill="#353535"/>
</svg>
