<svg width="18" height="18" viewBox="0 0 18 18" fill="none" xmlns="http://www.w3.org/2000/svg">
<path d="M7.28639 6.85547C7.17185 6.8555 7.06202 6.90102 6.98103 6.98201C6.90004 7.06299 6.85453 7.17283 6.85449 7.28736V10.7146C6.85453 10.8291 6.90004 10.939 6.98103 11.02C7.06202 11.1009 7.17185 11.1465 7.28639 11.1465H10.7136C10.8282 11.1465 10.938 11.1009 11.019 11.02C11.1 10.939 11.1455 10.8291 11.1455 10.7146V7.28736C11.1455 7.17283 11.1 7.06299 11.019 6.98201C10.938 6.90102 10.8282 6.8555 10.7136 6.85547H7.28639ZM10.2817 10.2827H7.7183V7.7193H10.2817V10.2827Z" fill="#D4D9EB"/>
<path d="M15.9703 7.71758C16.0833 7.71532 16.191 7.66883 16.2702 7.58807C16.3493 7.50732 16.3937 7.39874 16.3937 7.28566C16.3937 7.17257 16.3493 7.064 16.2702 6.98324C16.191 6.90249 16.0833 6.85599 15.9703 6.85374H13.5801V4.85161C13.58 4.73708 13.5345 4.62725 13.4535 4.54626C13.3726 4.46527 13.2627 4.41975 13.1482 4.41972H11.146V2.14481C11.146 2.03026 11.1005 1.9204 11.0195 1.8394C10.9385 1.7584 10.8287 1.71289 10.7141 1.71289C10.5996 1.71289 10.4897 1.7584 10.4087 1.8394C10.3277 1.9204 10.2822 2.03026 10.2822 2.14481V4.41969H7.71881V2.14481C7.71881 2.03026 7.6733 1.9204 7.5923 1.8394C7.5113 1.7584 7.40144 1.71289 7.28689 1.71289C7.17234 1.71289 7.06248 1.7584 6.98148 1.8394C6.90048 1.9204 6.85497 2.03026 6.85497 2.14481V4.41969H4.85284C4.73831 4.41973 4.62848 4.46525 4.54749 4.54623C4.4665 4.62722 4.42098 4.73705 4.42095 4.85159V6.85372H2.14607C2.03301 6.85596 1.92534 6.90245 1.84617 6.98321C1.76701 7.06396 1.72266 7.17253 1.72266 7.28562C1.72265 7.3987 1.76699 7.50728 1.84615 7.58804C1.92531 7.6688 2.03298 7.71529 2.14604 7.71755H4.42092V10.2809H2.14607C2.03301 10.2832 1.92534 10.3297 1.84617 10.4104C1.76701 10.4912 1.72266 10.5998 1.72266 10.7128C1.72265 10.8259 1.76699 10.9345 1.84615 11.0153C1.92531 11.096 2.03298 11.1425 2.14604 11.1448H4.42092V13.1469C4.42096 13.2614 4.46648 13.3713 4.54746 13.4523C4.62845 13.5333 4.73828 13.5788 4.85282 13.5788H6.85495V15.8537C6.85495 15.9682 6.90045 16.0781 6.98145 16.1591C7.06245 16.2401 7.17231 16.2856 7.28686 16.2856C7.40142 16.2856 7.51128 16.2401 7.59228 16.1591C7.67328 16.0781 7.71878 15.9682 7.71878 15.8537V13.5789H10.2822V15.8537C10.2822 15.9683 10.3277 16.0782 10.4087 16.1592C10.4897 16.2402 10.5995 16.2857 10.7141 16.2857C10.8286 16.2857 10.9385 16.2402 11.0195 16.1592C11.1005 16.0782 11.146 15.9683 11.146 15.8537V13.5789H13.1481C13.2627 13.5788 13.3725 13.5333 13.4535 13.4523C13.5345 13.3713 13.58 13.2615 13.58 13.147V11.1448H15.9702C16.0833 11.1426 16.1909 11.0961 16.2701 11.0153C16.3493 10.9346 16.3936 10.826 16.3936 10.7129C16.3936 10.5998 16.3493 10.4912 16.2701 10.4105C16.1909 10.3297 16.0833 10.2832 15.9702 10.281H13.5801V7.71758H15.9703ZM12.7162 12.715H5.28478V5.28354H12.7162V12.715Z" fill="#D4D9EB"/>
<path d="M16.283 0H1.71699C1.26175 0.000616043 0.825346 0.181749 0.503473 0.503674C0.181601 0.825599 0.000540858 1.26204 0 1.71727V16.2827C0.000540858 16.738 0.181601 17.1744 0.503473 17.4963C0.825346 17.8183 1.26175 17.9994 1.71699 18H16.283C16.7382 17.9994 17.1747 17.8183 17.4965 17.4963C17.8184 17.1744 17.9995 16.738 18 16.2827V1.71727C17.9995 1.26204 17.8184 0.825599 17.4965 0.503674C17.1747 0.181749 16.7382 0.000616043 16.283 0ZM17.1362 16.2827C17.1359 16.509 17.046 16.7258 16.886 16.8858C16.7261 17.0458 16.5092 17.1359 16.283 17.1362H1.71699C1.49076 17.1359 1.2739 17.0458 1.11396 16.8858C0.954022 16.7258 0.864067 16.509 0.863828 16.2827V1.71727C0.864067 1.49105 0.954022 1.27415 1.11396 1.11416C1.2739 0.954171 1.49076 0.864147 1.71699 0.863834H16.283C16.5092 0.864147 16.7261 0.954171 16.886 1.11416C17.046 1.27415 17.1359 1.49105 17.1362 1.71727V16.2827Z" fill="#D4D9EB"/>
</svg>
