  <svg width="19" height="19" viewBox="0 0 19 19" fill="none" xmlns="http://www.w3.org/2000/svg">
<path d="M6.28797 0C6.53399 0 6.73349 0.199498 6.73349 0.445526C6.73349 0.691554 6.53399 0.89047 6.28797 0.89047H2.31836C1.92635 0.89047 1.56923 1.05158 1.31041 1.31041C1.05158 1.56923 0.890471 1.92635 0.890471 2.31836V6.28797C0.890471 6.53399 0.690973 6.73349 0.445526 6.73349C0.199498 6.73349 0 6.53399 0 6.28797V2.31836C0 1.68032 0.260569 1.10044 0.680503 0.680503C1.10044 0.260569 1.68032 0 2.31836 0H6.28797ZM9.64919 12.1659L13.909 13.6973L9.49971 4.42909L5.0904 13.6973L9.35023 12.1659C9.45085 12.1298 9.55613 12.1322 9.64919 12.1659ZM14.6238 14.896L9.49971 13.054L4.40059 14.8867C4.28775 14.935 4.15572 14.9362 4.03649 14.8803C3.81489 14.7756 3.7195 14.511 3.8242 14.2888L9.09781 3.20476C9.14026 3.11461 9.21297 3.03842 9.3101 2.99247C9.5317 2.88778 9.79692 2.98258 9.90161 3.20476L15.1752 14.2888L15.1746 14.2894C15.2229 14.3918 15.2322 14.5133 15.1909 14.6285C15.1083 14.8588 14.8547 14.9786 14.6238 14.896ZM0 12.7115C0 12.4654 0.199498 12.2659 0.445526 12.2659C0.691554 12.2659 0.890471 12.4654 0.890471 12.7115V16.6811C0.890471 17.0731 1.05158 17.4302 1.31041 17.689C1.56923 17.9478 1.92635 18.1089 2.31836 18.1089H6.28797C6.53399 18.1089 6.73349 18.3084 6.73349 18.5539C6.73349 18.7999 6.53399 18.9994 6.28797 18.9994H2.31836C1.68032 18.9994 1.10044 18.7388 0.680503 18.3189C0.260569 17.899 0 17.3191 0 16.6811V12.7115ZM12.7115 19C12.4654 19 12.2659 18.8005 12.2659 18.5545C12.2659 18.3084 12.4654 18.1095 12.7115 18.1095H16.6811C17.0731 18.1095 17.4302 17.9484 17.689 17.6896C17.9478 17.4308 18.1089 17.0737 18.1089 16.6816V12.712C18.1089 12.466 18.3084 12.2665 18.5539 12.2665C18.7999 12.2665 18.9994 12.466 18.9994 12.712V16.6816C18.9994 17.3197 18.7388 17.8996 18.3189 18.3195C17.899 18.7394 17.3191 19 16.6811 19H12.7115ZM19 6.28855C19 6.53458 18.8005 6.73407 18.5545 6.73407C18.3084 6.73407 18.1095 6.53458 18.1095 6.28855V2.31895C18.1095 1.92693 17.9484 1.56981 17.6896 1.31099C17.4308 1.05216 17.0737 0.891052 16.6816 0.891052H12.712C12.466 0.891052 12.2665 0.691554 12.2665 0.446108C12.2665 0.20008 12.466 0.000581626 12.712 0.000581626H16.6816C17.3197 0.000581626 17.8996 0.26115 18.3195 0.681085C18.7394 1.10102 19 1.6809 19 2.31895V6.28855Z" fill="white"/>
</svg>