<svg width="14" height="28" viewBox="0 0 14 28" fill="none" xmlns="http://www.w3.org/2000/svg">
<path d="M8.01424 18.1054V5.03245C8.01424 4.54859 7.61333 4.15625 7.11879 4.15625C6.62424 4.15625 6.22334 4.54853 6.22334 5.03245V18.1055C4.80792 18.4899 3.76562 19.7611 3.76562 21.2669C3.76562 23.076 5.2698 24.5479 7.11879 24.5479C8.96777 24.5479 10.472 23.0761 10.472 21.2669C10.472 19.7611 9.42966 18.4899 8.01424 18.1054ZM7.11879 22.7955C6.25734 22.7955 5.55652 22.1097 5.55652 21.2668C5.55652 20.4239 6.25734 19.7381 7.11879 19.7381C7.98023 19.7381 8.68105 20.4239 8.68105 21.2668C8.68105 22.1097 7.98023 22.7955 7.11879 22.7955Z" fill="#203971"/>
<path d="M11.0593 16.2944V4.53374C11.0593 2.40863 9.29236 0.679688 7.12057 0.679688C4.94871 0.679688 3.18184 2.40863 3.18184 4.53374V16.2945C1.62848 17.4733 0.70761 19.282 0.695435 21.2228C0.673821 24.664 3.51597 27.5018 7.03116 27.5487C7.06146 27.5491 7.09144 27.5492 7.12164 27.5492C10.6622 27.5492 13.546 24.748 13.546 21.2621C13.5459 19.3052 12.6249 17.4819 11.0593 16.2944ZM7.05556 25.7965C4.5204 25.7626 2.47062 23.7157 2.48623 21.2336C2.49572 19.7169 3.27495 18.3119 4.5705 17.4753C4.82155 17.3131 4.97269 17.0384 4.97269 16.744V4.53374C4.97274 3.37488 5.93625 2.43209 7.12057 2.43209C8.30488 2.43209 9.26839 3.37493 9.26839 4.53374V16.7439C9.26839 17.0383 9.41947 17.313 9.67058 17.4752C10.9758 18.3181 11.755 19.7338 11.755 21.2621C11.755 23.7899 9.64784 25.8313 7.05556 25.7965Z" fill="#203971"/>
</svg>
