<svg width="259" height="148" viewBox="0 0 259 148" fill="none" xmlns="http://www.w3.org/2000/svg">
<circle cx="129.541" cy="6.66566" r="6.66566" fill="white"/>
<circle cx="170.306" cy="47.2946" r="6.66566" fill="white"/>
<circle cx="158.381" cy="76.1344" r="6.66566" fill="white"/>
<circle cx="100.702" cy="75.9977" r="6.66566" fill="white"/>
<path d="M107.821 18.5473C107.821 22.5041 104.613 25.7117 100.657 25.7117C96.6998 25.7117 93.4922 22.5041 93.4922 18.5473C93.4922 14.5904 96.6998 11.3828 100.657 11.3828C104.613 11.3828 107.821 14.5904 107.821 18.5473ZM94.5509 18.5473C94.5509 21.9194 97.2846 24.653 100.657 24.653C104.029 24.653 106.762 21.9194 106.762 18.5473C106.762 15.1752 104.029 12.4416 100.657 12.4416C97.2846 12.4416 94.5509 15.1752 94.5509 18.5473Z" fill="white"/>
<path d="M95.8504 47.3402C95.8504 51.2971 92.6428 54.5047 88.6859 54.5047C84.7291 54.5047 81.5215 51.2971 81.5215 47.3402C81.5215 43.3834 84.7291 40.1758 88.6859 40.1758C92.6428 40.1758 95.8504 43.3834 95.8504 47.3402ZM82.5802 47.3402C82.5802 50.7123 85.3139 53.4459 88.6859 53.4459C92.058 53.4459 94.7916 50.7123 94.7916 47.3402C94.7916 43.9681 92.058 41.2345 88.6859 41.2345C85.3139 41.2345 82.5802 43.9681 82.5802 47.3402Z" fill="white"/>
<path d="M136.615 88.016C136.615 91.9728 133.407 95.1805 129.451 95.1805C125.494 95.1805 122.286 91.9728 122.286 88.016C122.286 84.0592 125.494 80.8516 129.451 80.8516C133.407 80.8516 136.615 84.0592 136.615 88.016ZM123.345 88.016C123.345 91.3881 126.078 94.1217 129.451 94.1217C132.823 94.1217 135.556 91.3881 135.556 88.016C135.556 84.6439 132.823 81.9103 129.451 81.9103C126.078 81.9103 123.345 84.6439 123.345 88.016Z" fill="white"/>
<path d="M165.591 18.5473C165.591 22.5041 162.383 25.7117 158.426 25.7117C154.469 25.7117 151.262 22.5041 151.262 18.5473C151.262 14.5904 154.469 11.3828 158.426 11.3828C162.383 11.3828 165.591 14.5904 165.591 18.5473ZM152.32 18.5473C152.32 21.9194 155.054 24.653 158.426 24.653C161.798 24.653 164.532 21.9194 164.532 18.5473C164.532 15.1752 161.798 12.4416 158.426 12.4416C155.054 12.4416 152.32 15.1752 152.32 18.5473Z" fill="white"/>
<path d="M126.584 12.6295L127.536 13.0376L103.617 70.2852L102.642 69.8544L126.584 12.6295Z" fill="white"/>
<path d="M155.9 25.0781L156.762 25.4409L133.471 82.0615L132.496 81.631L155.9 25.0781Z" fill="white"/>
<path d="M102.801 25.3151L103.708 24.8397L127.297 81.2147L126.3 81.7042L102.801 25.3151Z" fill="white"/>
<path d="M93.3552 52.5914L93.9676 51.9796L124.767 82.6336L124.13 83.4253L93.3552 52.5914Z" fill="white"/>
<path d="M97.5863 24.8187L98.3795 25.2048L94.8734 33.5421L91.8297 40.9761L91.015 40.6785L94.301 32.7818L97.5863 24.8187Z" fill="white"/>
<path d="M166.128 42.332L165.358 42.9901L157.06 34.8118L152.877 30.6103L148.964 26.7081L141.292 19.057L133.822 11.7281L134.457 11.026L142.509 19.0485L150.359 26.8473L158.322 34.6229L166.128 42.332Z" fill="white"/>
<path d="M131.824 12.8639L132.64 12.4336L156.597 69.7826L155.486 70.236L131.824 12.8639Z" fill="white"/>
<path d="M66.5583 103.975C65.0674 104.177 63.5176 105.074 62.625 106.251C61.4235 107.84 61.2616 110.165 62.2474 111.651C62.6692 112.288 63.2577 112.774 64.062 113.151C65.6167 113.877 67.7942 113.853 69.3586 113.093C70.5259 112.524 71.546 111.474 71.9775 110.395C72.5219 109.037 72.4876 107.443 71.8942 106.315C71.3253 105.231 70.0501 104.373 68.52 104.044C68.0884 103.951 67.0095 103.912 66.5583 103.975Z" fill="white"/>
<path d="M178.793 103.949C177.459 104.12 176.214 104.709 175.262 105.621C174.585 106.263 174.056 107.18 173.81 108.122C173.57 109.039 173.649 110.275 173.997 111.07C174.664 112.595 176.331 113.581 178.381 113.664C179.529 113.713 180.495 113.536 181.373 113.12C181.976 112.83 182.364 112.56 182.878 112.065C183.604 111.364 184.055 110.589 184.296 109.623C184.443 109.039 184.453 107.754 184.315 107.229C184.188 106.729 183.845 106.052 183.526 105.67C182.898 104.915 181.765 104.287 180.573 104.042C180.196 103.963 179.127 103.909 178.793 103.949Z" fill="white"/>
<path d="M29.3354 105.893C29.3158 105.966 20.9736 147.256 20.9736 147.3C20.9736 147.314 23.1266 147.324 25.7553 147.324H30.537L30.5615 147.211C30.5762 147.153 31.4149 142.856 32.4252 137.663L34.2643 128.227L34.9116 127.57C36.3486 126.128 37.3883 125.382 38.4084 125.059C38.8841 124.907 39.8404 124.867 40.3162 124.98C41.0224 125.147 41.5079 125.52 41.7923 126.103C42.1405 126.819 42.1405 127.54 41.7972 129.056C41.5471 130.169 38.1386 147.094 38.1386 147.236C38.1386 147.319 38.3103 147.324 42.9105 147.324H47.6775L48.6289 142.577C49.4823 138.349 51.2969 129.379 51.6009 127.913C51.7873 127.016 51.8461 126.231 51.8412 124.666C51.8412 123.538 51.8216 123.087 51.7579 122.631C51.2772 119.365 49.8109 117.619 47.0596 117.025C46.2945 116.859 45.5736 116.805 44.4701 116.834C42.68 116.883 41.449 117.178 39.8797 117.948C38.5506 118.595 37.3834 119.345 36.2407 120.287C35.3236 121.042 35.3285 121.184 36.1573 118.168C36.8292 115.736 36.9077 115.402 37.8689 110.836C38.428 108.208 38.8939 106.006 38.9086 105.942L38.9331 105.834H34.1466C30.3555 105.834 29.3551 105.849 29.3354 105.893Z" fill="white"/>
<path d="M8.34481 109.985C8.3301 110.034 7.73668 111.74 7.03536 113.776C6.33405 115.811 5.75044 117.488 5.74063 117.498C5.73082 117.508 4.76468 117.596 3.59255 117.694C2.41552 117.792 1.44938 117.885 1.43957 117.895C1.42486 117.91 1.10117 119.455 0.723543 121.328C0.341009 123.202 0.0173257 124.776 0.00261288 124.82C-0.0219086 124.904 0.0908901 124.908 1.90057 124.908H3.82305L3.79363 125.041C3.77892 125.119 3.26887 127.552 2.65583 130.45C1.18455 137.449 1.00799 138.547 1.08156 140.131C1.17964 142.206 1.66517 143.756 2.6166 145.021C3.63179 146.37 5.2502 147.336 7.1923 147.753C8.16825 147.963 8.96275 148.022 10.6008 147.993C12.6606 147.959 13.7101 147.821 15.5541 147.346C16.1426 147.194 17.5943 146.747 17.5894 146.718C17.5698 146.595 15.9268 140.097 15.9072 140.082C15.8925 140.068 15.7748 140.112 15.6424 140.175C14.9754 140.509 14.1662 140.681 13.4453 140.636C12.0819 140.548 11.2923 139.999 10.9833 138.92C10.8852 138.572 10.8411 137.115 10.9147 136.63C10.9588 136.345 12.9941 126.247 13.2295 125.139L13.2834 124.908H16.6331H19.9827L20.0072 124.796C20.0563 124.609 21.4147 117.601 21.4147 117.552C21.4147 117.523 20.1936 117.498 18.1877 117.493L14.9607 117.478L15.662 113.8C16.0445 111.775 16.3584 110.073 16.3584 110.009L16.3633 109.901H12.3712C8.61454 109.901 8.37914 109.906 8.34481 109.985Z" fill="white"/>
<path d="M93.3839 116.873C92.2755 117.006 90.9758 117.369 90.0146 117.815C88.7297 118.413 86.8611 119.615 85.38 120.802C84.9485 121.15 84.6787 121.331 84.6003 121.331H84.4826V119.419V117.506H80.5886H76.6995L76.5719 118.153C75.2772 124.671 70.8486 147.207 70.8486 147.256C70.8486 147.314 71.5843 147.324 75.6254 147.324H80.4022L80.7504 145.519C80.9466 144.529 81.7803 140.233 82.6091 135.971L84.1196 128.222L84.8259 127.511C86.7091 125.623 87.9597 124.912 89.3819 124.912C90.2304 124.912 90.7895 125.098 91.2505 125.53C91.7115 125.961 91.9077 126.525 91.9028 127.413C91.9028 127.913 91.8684 128.114 91.6281 129.203C91.4761 129.875 90.6031 134.181 89.6811 138.766C88.7591 143.352 87.994 147.153 87.9793 147.216L87.9548 147.324L92.7512 147.314L97.5476 147.3L99.3965 138.104C100.417 133.048 101.304 128.6 101.373 128.222C101.775 126.04 101.839 123.931 101.549 122.234C101.02 119.115 99.421 117.437 96.4981 116.937C95.939 116.844 93.9724 116.805 93.3839 116.873Z" fill="white"/>
<path d="M199.489 116.872C195.114 117.323 190.627 119.971 187.728 123.811C186.041 126.053 184.82 128.77 184.315 131.408C184.06 132.742 184.016 133.296 184.016 135.086C184.016 136.592 184.025 136.827 184.133 137.514C184.56 140.339 185.644 142.649 187.38 144.454C188.336 145.444 189.253 146.106 190.538 146.739C191.72 147.318 192.863 147.666 194.339 147.896C195.139 148.019 198.096 148.019 199.155 147.896C201.156 147.661 202.652 147.283 204.457 146.557C205.658 146.077 207.532 145.076 207.532 144.915C207.532 144.88 204.285 139.069 204.226 139C204.226 139 204.01 139.127 203.755 139.289C203.5 139.451 202.936 139.755 202.505 139.971C200.916 140.751 199.812 140.986 198.41 140.854C196.737 140.692 195.433 140.172 194.477 139.289C193.633 138.505 193.084 137.2 192.986 135.734L192.951 135.258H201.053H209.155L209.302 134.924C209.547 134.385 210.008 132.943 210.249 131.972C210.739 129.991 210.872 128.794 210.774 127.176C210.617 124.419 209.999 122.271 208.88 120.594C208.052 119.348 206.982 118.421 205.595 117.75C204.638 117.284 203.53 116.989 202.314 116.872C201.691 116.808 200.092 116.813 199.489 116.872ZM200.935 124.199C201.725 124.419 202.235 124.841 202.583 125.562C202.887 126.205 202.976 126.582 203.005 127.46C203.03 128.206 202.946 129.123 202.824 129.446L202.775 129.569H198.218H193.657L193.78 129.235C194.148 128.255 194.682 127.244 195.217 126.528C196.115 125.327 197.414 124.454 198.758 124.15C199.18 124.052 200.519 124.081 200.935 124.199Z" fill="white"/>
<path d="M57.2897 132.351C55.6517 140.522 54.2981 147.231 54.2834 147.26C54.2687 147.31 55.2446 147.324 59.0602 147.324H63.8615L66.8433 132.474C68.4862 124.308 69.8251 117.599 69.8251 117.565C69.8202 117.521 68.8295 117.506 65.0483 117.506H60.2764L57.2897 132.351Z" fill="white"/>
<path d="M109.103 117.565C109.103 117.599 110.226 120.714 111.599 124.485L114.095 131.346L108.745 138.266C105.802 142.077 103.026 145.671 102.57 146.255L101.746 147.324H106.866H111.981L112.658 146.206C114.232 143.621 117.008 139.007 117.386 138.364C117.754 137.731 117.808 137.663 117.93 137.663C118.058 137.663 118.068 137.682 118.337 138.56C118.489 139.051 118.695 139.737 118.789 140.09C119.132 141.326 119.416 142.219 120.26 144.671C120.726 146.034 121.123 147.192 121.143 147.236C121.177 147.319 121.456 147.324 126.081 147.324C129.985 147.324 130.981 147.31 130.961 147.26C130.946 147.231 129.73 144.117 128.264 140.341L125.586 133.484L131.324 125.52C134.477 121.14 137.057 117.545 137.057 117.531C137.057 117.516 134.777 117.506 131.991 117.506H126.925L125.777 119.821C124.404 122.582 124.242 122.891 123.153 124.789C122.692 125.598 122.202 126.466 122.07 126.712C121.859 127.109 121.814 127.168 121.702 127.168C121.579 127.168 121.564 127.143 121.461 126.712C121.398 126.466 121.167 125.588 120.942 124.765C120.721 123.941 120.466 122.994 120.382 122.656C120.255 122.141 119.936 121.135 118.882 117.884L118.754 117.506H113.928C110.098 117.506 109.103 117.521 109.103 117.565Z" fill="white"/>
<path d="M138.431 117.531C138.431 117.54 139.235 124.22 140.221 132.376C141.206 140.532 142.011 147.231 142.011 147.26C142.011 147.31 143.134 147.324 147.518 147.324H153.026L160.505 132.454C164.615 124.279 167.989 117.57 167.994 117.545C168.004 117.526 165.909 117.511 163.345 117.516L158.676 117.531L155.542 124.789C151.947 133.102 151.78 133.494 150.824 135.878C150.181 137.476 149.25 139.698 149.039 140.139C148.98 140.257 148.926 140.311 148.847 140.311H148.744L148.715 136.648C148.69 133.117 148.681 132.705 148.367 125.696C148.19 121.69 148.033 118.207 148.014 117.957L147.984 117.506H143.207C140.579 117.506 138.431 117.516 138.431 117.531Z" fill="white"/>
<path d="M172.344 117.565C172.305 117.673 166.386 147.157 166.386 147.246C166.386 147.319 166.773 147.324 171.158 147.324H175.93L177.092 141.522C177.734 138.335 179.083 131.626 180.088 126.613L181.918 117.506H177.141C173.365 117.506 172.359 117.521 172.344 117.565Z" fill="white"/>
<path d="M215.698 118.055C215.733 118.693 216.802 146.829 216.802 147.128V147.324H222.192H227.581L227.665 147.113C228.298 145.544 232.074 135.775 232.383 134.916C232.613 134.284 233.256 132.396 233.82 130.723C234.384 129.051 234.855 127.643 234.874 127.594C234.894 127.545 234.962 127.511 235.036 127.511H235.159L235.124 128.085C235.11 128.403 235.07 130.042 235.046 131.729C235.016 133.416 234.977 135.137 234.948 135.554C234.923 135.971 234.899 138.791 234.899 141.822V147.324L240.475 147.314L246.051 147.3L252.27 132.44C255.688 124.264 258.488 117.565 258.488 117.54C258.488 117.521 256.502 117.511 254.07 117.516L249.651 117.531L248.16 121.65C247.341 123.916 246.144 127.202 245.512 128.958C244.192 132.572 243.874 133.504 243.354 135.235C242.996 136.427 242.299 138.536 242.02 139.281C241.902 139.605 241.868 139.649 241.75 139.664L241.618 139.678V138.732C241.618 138.212 241.652 136.672 241.696 135.309L241.775 132.832L241.623 125.77C241.539 121.886 241.456 118.438 241.441 118.104L241.412 117.506H237.356H233.3L230.73 123.744C229.318 127.177 227.905 130.596 227.591 131.336C226.983 132.763 226.444 134.171 225.899 135.75C225.615 136.569 224.629 139.33 224.526 139.585C224.506 139.634 224.438 139.674 224.374 139.674C224.261 139.674 224.256 139.659 224.256 139.389C224.256 139.021 224.374 137.192 224.526 135.284C224.781 132.033 224.84 130.556 224.968 124.765C225.031 121.621 225.1 118.703 225.12 118.276L225.149 117.506H220.407H215.669L215.698 118.055Z" fill="white"/>
</svg>
