<svg width="88" height="64" viewBox="0 0 88 64" fill="none" xmlns="http://www.w3.org/2000/svg">
<path d="M41.87 0.0106239C41.1564 0.0624237 39.3838 0.275372 38.6126 0.407742C31.217 1.66239 24.3625 5.61626 19.5799 11.383L19.1194 11.9356L18.5382 11.9758C17.3065 12.0564 16.0461 12.2579 14.849 12.5571C11.4016 13.4262 7.90241 15.4751 5.47368 18.0534C0.915504 22.8821 -0.920429 29.4028 0.437816 35.9178C1.62916 41.6385 5.49095 46.6802 10.7167 49.3448C13.2721 50.6455 15.7238 51.3247 18.5382 51.5146L19.1194 51.5549L19.5799 52.1074C21.905 54.916 24.8575 57.4022 28.1092 59.2842C29.1164 59.8712 31.2055 60.8842 32.2587 61.2986C33.0069 61.5978 34.8659 62.2309 35.2687 62.3287L35.4241 62.3633V41.6731V20.9828H37.168H38.9176L42.3938 25.3396C44.3045 27.7395 46.7448 30.7956 47.8095 32.1366L49.7548 34.5711V17.5124V0.453785L48.9088 0.33292C47.0958 0.0681801 46.4455 0.0221329 44.2873 0.00486755C43.1305 -0.00088501 42.0427 -0.00088501 41.87 0.0106239ZM21.6115 20.6088C24.374 20.9368 26.5783 22.0418 28.6041 24.0907L29.1797 24.672L27.666 26.1684L26.1466 27.6647L25.9394 27.4172C24.8862 26.1626 23.8157 25.3971 22.4978 24.9597C21.6 24.6605 21.0762 24.5914 19.9424 24.6259C19.1079 24.649 18.8374 24.6777 18.3713 24.7986C16.426 25.3108 14.7972 26.6173 13.8879 28.3841C13.3987 29.3338 13.1858 30.0589 13.0994 31.1006C12.8347 34.0876 14.3368 36.8329 16.9439 38.1393C17.5483 38.4386 18.2907 38.6918 18.9007 38.7954C19.4648 38.899 20.8345 38.9105 21.4734 38.8184C22.9467 38.617 24.374 37.8573 25.174 36.8444C25.6977 36.1883 26.1754 35.2387 26.3538 34.4962L26.3884 34.3351L22.751 34.3236L19.1079 34.3063L19.0907 32.4474L19.0792 30.5942H25.0071H30.935V31.538C30.935 33.1898 30.7624 34.3696 30.325 35.7048C29.4271 38.4616 27.6257 40.5853 25.151 41.8169C23.505 42.6342 22.0431 42.968 20.1496 42.968C15.7296 42.968 11.6779 40.4587 9.77863 36.5451C7.724 32.3092 8.60455 27.2503 11.9829 23.8835C13.8361 22.0418 16.2418 20.885 18.8489 20.5857C19.5281 20.5109 20.8863 20.5167 21.6115 20.6088Z" fill="white"/>
<path d="M54.187 22.1038V42.5638H52.4201H50.6475L47.5339 38.6618C45.8188 36.5208 43.3786 33.459 42.1067 31.8648L39.7988 28.9699V46.1148V63.2656L40.7945 63.3749C42.193 63.5303 45.7786 63.5303 47.1656 63.3807C51.5453 62.903 55.2633 61.7692 58.9927 59.7836C62.5437 57.8901 65.8587 55.1909 68.4198 52.1061L68.8802 51.5536L69.4615 51.5133C72.1665 51.3349 74.67 50.6558 77.0297 49.4759C82.6066 46.6846 86.5259 41.5164 87.677 35.4273C88.1086 33.1367 88.1086 30.3511 87.677 28.0605C86.0828 19.6348 79.1937 13.1544 70.7047 12.0954C70.3421 12.0494 69.7838 11.9976 69.4615 11.9745L68.8802 11.9342L68.4025 11.3587C64.9149 7.15737 60.3394 3.92866 55.033 1.92007C54.6244 1.77043 54.2676 1.64381 54.2388 1.64381C54.21 1.64381 54.187 9.60912 54.187 22.1038ZM69.5996 21.0448C73.6514 21.4823 76.7477 23.5196 78.2671 26.7426C78.9405 28.1756 79.257 29.5339 79.3203 31.2835C79.4815 35.8704 77.5016 39.5366 73.8988 41.3207C72.7766 41.879 71.9305 42.1495 70.5032 42.4027C69.8356 42.5235 69.6342 42.5293 64.8228 42.5523L59.8272 42.5696V31.7784V20.9815H64.4314C67.2745 20.9815 69.2543 21.0046 69.5996 21.0448Z" fill="white"/>
<path d="M64.2588 31.7729V38.5469L66.6645 38.5181C68.063 38.5008 69.2429 38.4605 69.4903 38.4203C70.9464 38.19 72.1665 37.6491 73.0471 36.8433C73.9967 35.98 74.6528 34.593 74.8485 33.0563C74.9348 32.36 74.9176 31.0708 74.814 30.3801C74.532 28.4521 73.6859 27.0191 72.2874 26.1097C71.8155 25.8047 71.0443 25.4594 70.5263 25.327C69.5594 25.0738 69.358 25.0565 66.7796 25.0277L64.2588 24.999V31.7729Z" fill="white"/>
</svg>
