<svg width="18" height="27" viewBox="0 0 18 27" fill="none" xmlns="http://www.w3.org/2000/svg">
<path d="M14.2328 23.5619H3.76767L3.76767 6.08291H9.12907H14.2328L14.2328 23.5619ZM4.63976 1.52646C4.63976 1.12094 4.81009 0.774725 5.15075 0.487804C5.49142 0.200884 5.90248 0.0574226 6.38395 0.0574226H11.6165C12.098 0.0574226 12.509 0.200884 12.8497 0.487804C13.1904 0.774725 13.3607 1.12094 13.3607 1.52646H15.5409C16.1405 1.52646 16.6538 1.70626 17.0807 2.06587C17.5077 2.42547 17.7212 2.85777 17.7212 3.36275V24.6637C17.7212 25.1687 17.5077 25.601 17.0807 25.9606C16.6538 26.3202 16.1405 26.5 15.5409 26.5H2.45953C1.85997 26.5 1.3467 26.3202 0.91974 25.9606C0.492778 25.601 0.279297 25.1687 0.279297 24.6637L0.279297 3.36275C0.279297 2.85777 0.492778 2.42547 0.91974 2.06587C1.3467 1.70626 1.85997 1.52646 2.45953 1.52646H4.63976ZM11.6165 1.52646H6.38395V2.99549H2.45953C2.33235 2.99549 2.22788 3.02992 2.14612 3.09878C2.06436 3.16764 2.02348 3.25563 2.02348 3.36275L2.02348 24.6637C2.02348 24.7708 2.06436 24.8588 2.14612 24.9277C2.22788 24.9965 2.33235 25.031 2.45953 25.031H15.5409C15.6681 25.031 15.7726 24.9965 15.8543 24.9277C15.9361 24.8588 15.977 24.7708 15.977 24.6637L15.977 3.36275C15.977 3.25563 15.9361 3.16764 15.8543 3.09878C15.7726 3.02992 15.6681 2.99549 15.5409 2.99549H11.6165V1.52646Z" fill="#1A9F0B"/>
</svg>
