<svg xmlns="http://www.w3.org/2000/svg" width="10" height="10" viewBox="0 0 10 10" fill="none">
  <path d="M0.55226 9.74678C0.302575 9.49423 0.305139 9.10939 0.558173 8.85922L7.82529 1.67449L1.05079 1.64238C0.695997 1.6407 0.416454 1.35795 0.433747 1.01827C0.43611 0.66348 0.719403 0.383399 1.05906 0.400038L9.34302 0.439301C9.37307 0.439443 9.43201 0.439722 9.47582 0.454954C9.49075 0.470048 9.50587 0.455096 9.52022 0.469611C9.55027 0.469754 9.56462 0.484269 9.59409 0.484985C9.60901 0.50008 9.63848 0.499642 9.65341 0.514737C9.66833 0.529831 9.6978 0.529394 9.71273 0.544489C9.7864 0.588756 9.84552 0.648554 9.88894 0.722723C9.90386 0.737817 9.90309 0.767284 9.91801 0.782379C9.93294 0.797474 9.93216 0.826941 9.94709 0.842035C9.96201 0.85713 9.96124 0.886597 9.96162 0.91607C9.97654 0.931164 9.97577 0.960631 9.97577 0.960631C9.98992 1.00519 9.9903 1.03467 9.98991 1.09361L9.93472 9.37747C9.93354 9.55544 9.8585 9.71688 9.75378 9.82041C9.64966 9.92335 9.48622 9.99655 9.30881 9.99629C8.95402 9.99461 8.67448 9.71186 8.69177 9.37217L8.70708 2.56639L1.43996 9.75112C1.18693 10.0013 0.801944 9.99932 0.55226 9.74678Z" fill="white"/>
</svg>