<svg width="23" height="18" viewBox="0 0 23 18" fill="none" xmlns="http://www.w3.org/2000/svg">
<path d="M22.3611 1.58263C22.2748 1.51138 22.1586 1.48513 22.0461 1.50763L15.0336 2.98512L7.63869 0.0263946C7.57119 0.00014481 7.49619 -0.00735484 7.42119 0.00764504L0.296248 1.50763C0.123749 1.54513 0 1.69888 0 1.87513V16.125C0 16.2375 0.0524995 16.3463 0.138749 16.4175C0.224998 16.4888 0.341247 16.5188 0.453746 16.4925L7.46619 15.015L14.8611 17.9738C14.9061 17.9925 14.9549 18 14.9999 18C15.0261 18 15.0524 18 15.0786 17.9925L22.2036 16.4925C22.3761 16.455 22.4998 16.3013 22.4998 16.125V1.87513C22.4998 1.76263 22.4473 1.65388 22.3611 1.58263ZM14.0286 7.01259C14.0736 7.18134 14.2236 7.29384 14.3924 7.29384C14.4224 7.29384 14.4561 7.29009 14.4861 7.28259C14.5311 7.27134 14.5799 7.26384 14.6249 7.25259V17.07L7.87494 14.37V11.5163C7.97994 11.4938 8.08869 11.4713 8.19368 11.4451C8.39618 11.3926 8.51618 11.1901 8.46368 10.9876C8.41118 10.7888 8.20868 10.6651 8.00619 10.7176C7.96119 10.7288 7.91994 10.7363 7.87494 10.7476V0.930137L14.6249 3.63012V6.48384C14.5161 6.50634 14.4074 6.52884 14.2986 6.55509C14.0999 6.60759 13.9761 6.81009 14.0286 7.01259ZM0.749994 2.17888L7.12494 0.836388V10.8638C6.96369 10.8788 6.8062 10.8863 6.64495 10.8863H6.58495C6.38245 10.9013 6.2062 11.0476 6.20245 11.2538C6.20245 11.4601 6.3637 11.6326 6.56995 11.6363H6.64495C6.8062 11.6363 6.96369 11.6288 7.12119 11.6176V14.3175L0.746244 15.66V2.17888H0.749994ZM21.7498 15.8213L15.3749 17.1638V7.13634C15.5324 7.12134 15.6936 7.11384 15.8511 7.11384H15.9149C16.1211 7.11384 16.2899 6.94884 16.2899 6.74259C16.2899 6.53634 16.1249 6.36759 15.9186 6.36384H15.8549C15.6936 6.36384 15.5361 6.37134 15.3786 6.38259V3.68262L21.7536 2.34013V15.8213H21.7498Z" fill="#D4D9EB"/>
<path d="M2.11861 8.71487C1.96111 8.57987 1.72487 8.59487 1.58987 8.75237C1.45487 8.90986 1.46987 9.14611 1.62737 9.28111L2.19361 9.77236C2.26486 9.83236 2.35111 9.86236 2.43736 9.86236C2.54236 9.86236 2.64736 9.81736 2.72236 9.73111C2.85736 9.57361 2.84236 9.33736 2.68486 9.20236L2.11861 8.71112V8.71487Z" fill="#D4D9EB"/>
<path d="M12.7871 7.16985C12.3146 7.43985 11.8758 7.77359 11.4896 8.15984C11.3433 8.30609 11.3433 8.54234 11.4896 8.68859C11.5646 8.76358 11.6583 8.79734 11.7558 8.79734C11.8533 8.79734 11.9471 8.75984 12.0221 8.68859C12.3633 8.34734 12.7458 8.05484 13.1621 7.81859C13.3421 7.71734 13.4058 7.4886 13.3008 7.3086C13.1996 7.1286 12.9671 7.06485 12.7908 7.16985H12.7871Z" fill="#D4D9EB"/>
<path d="M10.4771 9.31476C10.1358 9.65226 9.75334 9.94476 9.33709 10.181C9.1571 10.2823 9.09335 10.511 9.1946 10.691C9.26209 10.811 9.38959 10.8823 9.52084 10.8823C9.58459 10.8823 9.64834 10.8673 9.70459 10.8335C10.1808 10.5635 10.6158 10.2298 11.0021 9.84351C11.1483 9.69726 11.1483 9.46101 11.0021 9.31476C10.8558 9.16852 10.6196 9.16852 10.4733 9.31476H10.4771Z" fill="#D4D9EB"/>
<path d="M17.3289 7.3162C17.7901 7.44745 18.2326 7.6387 18.6451 7.88619C18.7051 7.92369 18.7726 7.93869 18.8401 7.93869C18.9676 7.93869 19.0914 7.87494 19.1626 7.7587C19.2714 7.58245 19.2114 7.34995 19.0351 7.24495C18.5664 6.9637 18.0639 6.74245 17.5389 6.59621C17.3401 6.53996 17.1339 6.6562 17.0777 6.85495C17.0214 7.0537 17.1376 7.25995 17.3364 7.3162H17.3289Z" fill="#D4D9EB"/>
<path d="M5.1639 10.6831C4.70266 10.5518 4.26016 10.3606 3.85141 10.1131C3.67517 10.0043 3.44267 10.0643 3.33767 10.2406C3.22892 10.4168 3.28892 10.6493 3.46517 10.7543C3.93391 11.0356 4.43641 11.2568 4.96141 11.4068C4.99516 11.418 5.02891 11.4218 5.06265 11.4218C5.22765 11.4218 5.37765 11.313 5.42265 11.1481C5.4789 10.9493 5.36265 10.7431 5.1639 10.6831Z" fill="#D4D9EB"/>
<path d="M20.3811 9.28587C20.4524 9.34587 20.5386 9.37587 20.6249 9.37587C20.7299 9.37587 20.8349 9.33087 20.9099 9.24462C21.0449 9.08713 21.0299 8.85088 20.8724 8.71588L20.3061 8.22463C20.1486 8.08963 19.9124 8.10463 19.7774 8.26213C19.6424 8.41963 19.6574 8.65588 19.8149 8.79088L20.3811 9.28212V9.28587Z" fill="#D4D9EB"/>
</svg>
