      <svg width="67" height="67" viewBox="0 0 97 97" fill="none" xmlns="http://www.w3.org/2000/svg">
<path d="M96.4432 49.5567L95.049 45.9176C94.5128 44.5261 94.2983 42.9206 94.6201 41.4222L95.2635 37.5689C95.6925 34.7861 94.7273 32.0032 92.7969 30.0766L90.1158 27.2937C89.0433 26.2233 88.2926 24.8319 87.8636 23.3334L86.8984 19.5872C86.1477 16.9114 84.2173 14.6637 81.5362 13.7004L77.9971 12.3089C76.6029 11.7737 75.316 10.8104 74.3508 9.63306L71.9914 6.63611C70.1682 4.49543 67.4871 3.31805 64.6987 3.42509L60.9451 3.63916C59.4437 3.74619 57.835 3.42509 56.4409 2.67585L53.009 0.963306C50.5424 -0.321102 47.5395 -0.321102 44.9656 0.963306L41.641 2.78288C40.2469 3.53212 38.7454 3.85322 37.1368 3.74619L33.3832 3.53212C30.5948 3.42509 27.9137 4.60246 26.0905 6.74314L23.7311 9.7401C22.7659 10.9175 21.479 11.8808 20.0848 12.4159L16.5457 13.8074C13.8646 14.7707 11.9342 17.0184 11.1835 19.6943L9.78928 23.5475C9.3603 25.046 8.60958 26.4374 7.53713 27.5077L4.74876 30.1836C2.81835 32.1102 1.85315 34.8931 2.28213 37.676L2.9256 41.5292C3.14009 43.0277 3.03284 44.6332 2.49662 46.0246L1.10243 49.6638C0.137226 52.2326 0.458961 55.2295 1.96039 57.5843L4.10529 60.9024C4.96325 62.1868 5.39223 63.6852 5.49948 65.1837L5.71397 69.0369C5.82121 71.8198 7.32264 74.3886 9.68203 75.8871L12.8994 78.0278C14.1863 78.8841 15.2588 80.0614 15.9022 81.4529L17.7254 84.878C19.0123 87.3398 21.3717 89.1593 24.1601 89.5875L27.8064 90.2297C29.3079 90.4437 30.8093 91.0859 31.989 92.0492L34.9919 94.511C37.1368 96.3306 40.1396 96.8658 42.8207 96.1165L46.4671 95.1532C47.9685 94.7251 49.5772 94.7251 51.0786 95.1532L54.7249 96.1165C57.4061 96.8658 60.4089 96.2236 62.5538 94.511L65.5567 92.0492C66.7364 91.0859 68.2378 90.4437 69.7392 90.2297L73.4928 89.5875C76.2812 89.1593 78.6406 87.4468 79.9275 84.878L81.7507 81.4529C82.3941 80.0614 83.4666 78.8841 84.7535 78.0278L87.9709 75.8871C90.3303 74.3886 91.8317 71.8198 91.9389 69.0369L92.1534 65.1837C92.2607 63.6852 92.6897 62.1868 93.5476 60.9024L95.6925 57.5843C97.0867 55.1225 97.4084 52.2326 96.4432 49.5567ZM42.928 66.4681L24.5891 48.1653L31.2383 41.5292L42.928 53.1959L66.2001 29.9695L72.8493 36.6056L42.928 66.4681Z" fill="#18C07A"/>
</svg>