<svg width="17" height="20" viewBox="0 0 17 20" fill="none" xmlns="http://www.w3.org/2000/svg">
<path d="M8.50007 9.03139C10.9893 9.03139 13.0158 7.00493 13.0158 4.5157C13.0158 2.02646 10.9893 0 8.50007 0C6.01083 0 3.98438 2.02646 3.98438 4.5157C3.98438 7.00493 6.01083 9.03139 8.50007 9.03139ZM8.50007 1.06252C10.4051 1.06252 11.9532 2.61063 11.9532 4.5157C11.9532 6.42076 10.4051 7.96887 8.50007 7.96887C6.595 7.96887 5.04689 6.42076 5.04689 4.5157C5.04689 2.61063 6.595 1.06252 8.50007 1.06252Z" fill="#D4D9EB"/>
<path d="M1.6651 19.125H15.3346C16.254 19.125 17 18.379 17 17.4596C17 13.6901 13.9349 10.625 10.1654 10.625H6.83464C3.06509 10.625 0 13.6901 0 17.4596C0 18.379 0.745781 19.125 1.6651 19.125ZM6.83451 11.6874H10.1652C13.3475 11.6874 15.9374 14.2773 15.9374 17.4595C15.9374 17.7915 15.6665 18.0623 15.3345 18.0623H1.66496C1.33293 18.0623 1.06212 17.7915 1.06212 17.4595C1.06212 14.2773 3.65227 11.6874 6.83451 11.6874Z" fill="#D4D9EB"/>
</svg>
