<svg width="18" height="11" viewBox="0 0 18 11" fill="none" xmlns="http://www.w3.org/2000/svg">
<g clip-path="url(#clip0_4119_6700)">
<path d="M16.32 2.592C16.585 2.592 16.8113 2.69325 16.9988 2.89575C17.1863 3.09825 17.28 3.3426 17.28 3.6288V6.7392C17.28 7.0254 17.1863 7.26975 16.9988 7.47225C16.8113 7.67475 16.585 7.776 16.32 7.776V9.072C16.32 9.4284 16.2025 9.7335 15.9675 9.9873C15.7325 10.2411 15.45 10.368 15.12 10.368H1.2C0.87 10.368 0.5875 10.2411 0.3525 9.9873C0.1175 9.7335 0 9.4284 0 9.072V1.296C0 0.9396 0.1175 0.6345 0.3525 0.3807C0.5875 0.1269 0.87 0 1.2 0H15.12C15.45 0 15.7325 0.1269 15.9675 0.3807C16.2025 0.6345 16.32 0.9396 16.32 1.296V2.592ZM16.32 6.7392V3.6288H15.36V1.296C15.36 1.2204 15.3375 1.1583 15.2925 1.1097C15.2475 1.0611 15.19 1.0368 15.12 1.0368H1.2C1.13 1.0368 1.0725 1.0611 1.0275 1.1097C0.9825 1.1583 0.96 1.2204 0.96 1.296V9.072C0.96 9.1476 0.9825 9.2097 1.0275 9.2583C1.0725 9.3069 1.13 9.3312 1.2 9.3312H15.12C15.19 9.3312 15.2475 9.3069 15.2925 9.2583C15.3375 9.2097 15.36 9.1476 15.36 9.072V6.7392H16.32Z" fill="#1A9F0B"/>
</g>
<defs>
<clipPath id="clip0_4119_6700">
<rect width="17.28" height="10.368" fill="white"/>
</clipPath>
</defs>
</svg>
