<svg width="15" height="23" viewBox="0 0 15 23" fill="none" xmlns="http://www.w3.org/2000/svg">
<path d="M12 20.4444H3L3 13H8H12V20.4444ZM3.75 1.27778C3.75 0.925059 3.89648 0.623916 4.18945 0.37435C4.48242 0.124784 4.83594 0 5.25 0H9.75C10.1641 0 10.5176 0.124784 10.8105 0.37435C11.1035 0.623916 11.25 0.925059 11.25 1.27778H13.125C13.6406 1.27778 14.082 1.43417 14.4492 1.74696C14.8164 2.05975 15 2.43577 15 2.875L15 21.4028C15 21.842 14.8164 22.218 14.4492 22.5308C14.082 22.8436 13.6406 23 13.125 23H1.875C1.35938 23 0.917969 22.8436 0.550781 22.5308C0.183594 22.218 0 21.842 0 21.4028L0 2.875C0 2.43577 0.183594 2.05975 0.550781 1.74696C0.917969 1.43417 1.35938 1.27778 1.875 1.27778H3.75ZM9.75 1.27778H5.25V2.55556H1.875C1.76563 2.55556 1.67578 2.5855 1.60547 2.6454C1.53516 2.70529 1.5 2.78183 1.5 2.875L1.5 21.4028C1.5 21.4959 1.53516 21.5725 1.60547 21.6324C1.67578 21.6923 1.76563 21.7222 1.875 21.7222H13.125C13.2344 21.7222 13.3242 21.6923 13.3945 21.6324C13.4648 21.5725 13.5 21.4959 13.5 21.4028L13.5 2.875C13.5 2.78183 13.4648 2.70529 13.3945 2.6454C13.3242 2.5855 13.2344 2.55556 13.125 2.55556H9.75V1.27778Z" fill="#1A9F0B"/>
</svg>
