<svg width="16" height="24" viewBox="0 0 16 24" fill="none" xmlns="http://www.w3.org/2000/svg">
<path d="M8.92187 0.563328C8.75632 0.220086 8.39642 8.14755e-05 8.00021 2.26348e-08C7.60392 -8.14302e-05 7.24377 0.219678 7.07821 0.562921C4.52612 5.85532 0 12.6672 0 16.3721C0 20.5849 3.58165 24 7.99996 24C12.4183 24 16 20.5848 16 16.3721C16.0001 12.6675 11.4741 5.85573 8.92187 0.563328ZM7.65825 21.57C4.70244 21.57 2.29778 19.2772 2.29778 16.4589C2.29778 15.8966 2.77591 15.4407 3.36561 15.4407C3.9553 15.4407 4.43343 15.8966 4.43343 16.4589C4.43343 18.1543 5.88012 19.5337 7.65825 19.5337C8.24795 19.5337 8.72608 19.9896 8.72608 20.5519C8.72608 21.1142 8.24795 21.57 7.65825 21.57Z" fill="#36B0FD"/>
</svg>
