<svg width="18" height="22" viewBox="0 0 18 22" fill="none" xmlns="http://www.w3.org/2000/svg">
<path d="M13.5714 13.5L12.7657 14.3812L14.8114 16.625H5.57143C4.96522 16.625 4.38384 16.3616 3.95518 15.8928C3.52653 15.4239 3.28571 14.788 3.28571 14.125C3.28571 13.462 3.52653 12.8261 3.95518 12.3572C4.38384 11.8884 4.96522 11.625 5.57143 11.625H12.4286C13.3379 11.625 14.21 11.2299 14.8529 10.5267C15.4959 9.82339 15.8571 8.86956 15.8571 7.875C15.8571 6.88044 15.4959 5.92661 14.8529 5.22335C14.21 4.52009 13.3379 4.125 12.4286 4.125H3.18857L5.23429 1.88125L4.42857 1L1 4.75L4.42857 8.5L5.23429 7.61875L3.18857 5.375H12.4286C13.0348 5.375 13.6162 5.63839 14.0448 6.10723C14.4735 6.57607 14.7143 7.21196 14.7143 7.875C14.7143 8.53804 14.4735 9.17393 14.0448 9.64277C13.6162 10.1116 13.0348 10.375 12.4286 10.375H5.57143C4.66212 10.375 3.79004 10.7701 3.14706 11.4733C2.50408 12.1766 2.14286 13.1304 2.14286 14.125C2.14286 15.1196 2.50408 16.0734 3.14706 16.7767C3.79004 17.4799 4.66212 17.875 5.57143 17.875H14.8114L12.7657 20.1188L13.5714 21L17 17.25L13.5714 13.5Z" fill="#1A9F0B" stroke="#1A9F0B" stroke-width="0.5"/>
</svg>
