<svg width="12" height="24" viewBox="0 0 12 24" fill="none" xmlns="http://www.w3.org/2000/svg">
<path d="M6.83749 15.5614V3.88455C6.83749 3.45237 6.46313 3.10193 6.00132 3.10193C5.53951 3.10193 5.16514 3.45232 5.16514 3.88455V15.5615C3.84342 15.9048 2.87012 17.0403 2.87012 18.3852C2.87012 20.0012 4.27473 21.3159 6.00132 21.3159C7.72791 21.3159 9.13251 20.0012 9.13251 18.3852C9.13251 17.0403 8.15922 15.9048 6.83749 15.5614ZM6.00132 19.7506C5.19689 19.7506 4.54247 19.1381 4.54247 18.3851C4.54247 17.6322 5.19689 17.0197 6.00132 17.0197C6.80574 17.0197 7.46016 17.6322 7.46016 18.3851C7.46016 19.1381 6.80574 19.7506 6.00132 19.7506Z" fill="#203971"/>
<path d="M9.67793 13.9471V3.44245C9.67793 1.5443 8.02797 0 5.99993 0C3.97185 0 2.32193 1.5443 2.32193 3.44245V13.9472C0.871397 15.0001 0.0114831 16.6157 0.000114358 18.3492C-0.0200688 21.4229 2.63395 23.9576 5.91644 23.9995C5.94474 23.9999 5.97274 24 6.00093 24C9.30717 24 12 21.4979 12 18.3843C11.9999 16.6364 11.1399 15.0078 9.67793 13.9471ZM5.93923 22.4344C3.57189 22.4041 1.65779 20.5758 1.67236 18.3588C1.68123 17.0041 2.40888 15.7492 3.61867 15.0019C3.8531 14.857 3.99423 14.6117 3.99423 14.3487V3.44245C3.99428 2.40736 4.89401 1.56525 5.99993 1.56525C7.10585 1.56525 8.00558 2.40741 8.00558 3.44245V14.3486C8.00558 14.6116 8.14666 14.8569 8.38115 15.0018C9.59995 15.7547 10.3276 17.0192 10.3276 18.3843C10.3276 20.6422 8.35991 22.4655 5.93923 22.4344Z" fill="#203971"/>
</svg>
