<svg width="20" height="20" viewBox="0 0 20 20" fill="none" xmlns="http://www.w3.org/2000/svg">
<path d="M1 7V2.5C1 2.10218 1.15804 1.72064 1.43934 1.43934C1.72064 1.15804 2.10218 1 2.5 1H17.5C17.8978 1 18.2794 1.15804 18.5607 1.43934C18.842 1.72064 19 2.10218 19 2.5V7M14 10V13.5M10 5.5V13.5M6 7.5V13.5M1 13V17.5C1 17.8978 1.15804 18.2794 1.43934 18.5607C1.72064 18.842 2.10218 19 2.5 19H17.5C17.8978 19 18.2794 18.842 18.5607 18.5607C18.842 18.2794 19 17.8978 19 17.5V13" stroke="#3054E5" stroke-width="1.5" stroke-linecap="round" stroke-linejoin="round"/>
</svg>
