<svg width="16" height="16" viewBox="0 0 16 16" fill="none" xmlns="http://www.w3.org/2000/svg">
<path fill-rule="evenodd" clip-rule="evenodd" d="M5.50794 8.59936C5.50794 8.41742 5.63518 8.27018 5.79183 8.27018C5.94907 8.27018 6.07632 8.41741 6.07632 8.59936V12.3432C6.07632 12.5252 5.94908 12.6724 5.79183 12.6724C5.63519 12.6724 5.50794 12.5252 5.50794 12.3432V8.59936ZM9.9234 8.59936C9.9234 8.41742 10.0506 8.27018 10.2079 8.27018C10.3645 8.27018 10.4918 8.41741 10.4918 8.59936V12.3432C10.4918 12.5252 10.3645 12.6724 10.2079 12.6724C10.0506 12.6724 9.9234 12.5252 9.9234 12.3432V8.59936ZM7.71536 7.76394C7.71536 7.582 7.8426 7.43476 7.99985 7.43476C8.15711 7.43476 8.28434 7.58199 8.28434 7.76394V13.1786C8.28434 13.3605 8.15711 13.5077 7.99985 13.5077C7.8426 13.5077 7.71536 13.3605 7.71536 13.1786V7.76394ZM2.57009 4.9424H13.4297V3.94865C13.4279 3.40074 13.0444 2.95698 12.5709 2.9549H3.42899C2.95546 2.95699 2.57194 3.40074 2.57015 3.94865L2.57009 4.9424ZM3.13065 5.60213L3.60059 13.9362H3.60119C3.645 14.7279 4.21397 15.3432 4.89937 15.3404H11.1003C11.7857 15.3432 12.3547 14.7279 12.3985 13.9362L12.8685 5.60213H3.13065ZM5.56439 2.29508H3.42903C2.64039 2.29716 2.0018 3.03606 2 3.94857V5.27149V5.2708C2 5.3583 2.02941 5.44302 2.08282 5.50483C2.13624 5.56663 2.20886 5.60205 2.28448 5.60205H2.56237L3.0341 13.9771C3.09832 15.1146 3.91397 15.9993 4.89951 16H11.1005C12.086 15.9993 12.9017 15.1146 12.9659 13.9771L13.4388 5.60205H13.7155C13.7911 5.60205 13.8638 5.56663 13.9172 5.50483C13.9706 5.44302 14 5.3583 14 5.2708V3.94856C13.9982 3.03606 13.3596 2.29716 12.571 2.29508H10.4356V1.8041C10.4326 0.808949 9.7364 0.00266669 8.8758 0H7.12455C6.26389 0.0027778 5.56766 0.809038 5.56474 1.8041L5.56439 2.29508ZM9.86646 2.29508H6.13457V1.8041C6.13637 1.17285 6.57809 0.661731 7.12426 0.659651H8.87551C9.42167 0.661734 9.8634 1.17285 9.8652 1.8041L9.86646 2.29508Z" fill="black"/>
</svg>
