<svg width="16" height="16" viewBox="0 0 16 16" fill="none" xmlns="http://www.w3.org/2000/svg">
<path fill-rule="evenodd" clip-rule="evenodd" d="M8.12346 5.40979C7.81265 5.71921 7.59725 6.11068 7.50271 6.538L6.95767 9.00148L9.43234 8.45892C9.8616 8.36478 10.2549 8.15037 10.5657 7.84097L15.4942 2.93467C16.1686 2.26332 16.1686 1.17486 15.4942 0.503511C14.8199 -0.167837 13.7264 -0.167837 13.052 0.503511L8.12346 5.40979ZM8.3934 6.7333C8.45051 6.47516 8.58063 6.23868 8.76838 6.05178L13.6969 1.1455C14.0151 0.828709 14.5311 0.828709 14.8492 1.1455C15.1675 1.46229 15.1675 1.9759 14.8492 2.29268L9.92075 7.19897C9.73302 7.38587 9.49547 7.51539 9.23616 7.57225L8.15536 7.80921L8.3934 6.7333ZM0.912037 3.37999C0.912037 2.72814 1.44288 2.1997 2.09768 2.1997H7.3875C7.63935 2.1997 7.84352 1.99645 7.84352 1.74574C7.84352 1.49503 7.63935 1.29178 7.3875 1.29178H2.09768C0.939161 1.29178 0 2.2267 0 3.37999V13.9118C0 15.0651 0.939161 16 2.09768 16H12.6773C13.8358 16 14.775 15.0651 14.775 13.9118V8.64589C14.775 8.39518 14.5709 8.19193 14.319 8.19193C14.0671 8.19193 13.863 8.39518 13.863 8.64589V13.9118C13.863 14.5637 13.3321 15.0921 12.6773 15.0921H2.09768C1.44288 15.0921 0.912037 14.5637 0.912037 13.9118V3.37999Z" fill="black"/>
</svg>
