<svg width="16" height="16" viewBox="0 0 16 16" fill="none" xmlns="http://www.w3.org/2000/svg">
<path d="M8 0C3.58876 0 0 3.58876 0 8C0 12.4112 3.58876 16 8 16C12.4112 16 16 12.4112 16 8C16 3.58876 12.4112 0 8 0ZM8.64001 11.5201C8.64001 11.8738 8.35361 12.1602 8 12.1602C7.64639 12.1602 7.35999 11.8738 7.35999 11.5201V11.2001C7.35999 10.8465 7.64639 10.5601 8 10.5601C8.35361 10.5601 8.64001 10.8465 8.64001 11.2001V11.5201ZM8.64001 8.32011C8.64001 8.67372 8.35361 8.96012 8 8.96012C7.64639 8.96012 7.35999 8.67372 7.35999 8.32011V4.48006C7.35999 4.12645 7.64639 3.84005 8 3.84005C8.35361 3.84005 8.64001 4.12645 8.64001 4.48006V8.32011Z" fill="#EF3934"/>
</svg>
