<svg width="16" height="16" viewBox="0 0 16 16" fill="none" xmlns="http://www.w3.org/2000/svg">
<path d="M4.27027 9.18306L3.72103 9.76753C3.52033 8.98835 3.49237 8.17024 3.63933 7.37761C3.78629 6.58498 4.10416 5.83948 4.56792 5.1998C5.03168 4.56013 5.62866 4.04376 6.31185 3.69134C6.99504 3.33893 7.74579 3.16009 8.50498 3.16893C8.65065 3.16893 8.79035 3.10735 8.89335 2.99774C8.99636 2.88813 9.05423 2.73947 9.05423 2.58446C9.05423 2.42945 8.99636 2.28079 8.89335 2.17119C8.79035 2.06158 8.65065 2 8.50498 2C7.59492 2.00376 6.69741 2.22624 5.87948 2.65084C5.06155 3.07544 4.34432 3.69118 3.78136 4.45208C3.21841 5.21298 2.82426 6.09938 2.62835 7.04509C2.43244 7.99081 2.43984 8.9714 2.64999 9.91364L1.94146 9.18306C1.83804 9.07301 1.69776 9.01118 1.5515 9.01118C1.40523 9.01118 1.26495 9.07301 1.16153 9.18306C1.0581 9.29312 1 9.44239 1 9.59803C1 9.75368 1.0581 9.90294 1.16153 10.013L2.7159 11.667C2.81881 11.7759 2.95802 11.837 3.10312 11.837C3.24823 11.837 3.38743 11.7759 3.49034 11.667L5.04471 10.013C5.1347 9.90119 5.18171 9.75737 5.17637 9.61027C5.17104 9.46318 5.11373 9.32364 5.01591 9.21955C4.91809 9.11546 4.78697 9.05449 4.64874 9.0488C4.5105 9.04312 4.37535 9.09316 4.27027 9.18891V9.18306Z" fill="#223D9F"/>
<path d="M15.8293 7.32755L14.286 5.67352C14.2393 5.62692 14.1854 5.58934 14.1267 5.56247C14.0847 5.5573 14.0423 5.5573 14.0003 5.56247H13.9125C13.8869 5.56044 13.8612 5.56044 13.8356 5.56247C13.7531 5.56939 13.6754 5.60658 13.6159 5.66768C13.5928 5.68144 13.5708 5.69707 13.55 5.71443L11.9571 7.32755C11.8996 7.37995 11.853 7.44442 11.82 7.51694C11.787 7.58945 11.7685 7.66843 11.7656 7.74892C11.7626 7.82941 11.7754 7.90968 11.803 7.98468C11.8306 8.05968 11.8725 8.1278 11.926 8.18476C11.9796 8.24171 12.0436 8.28629 12.1141 8.31567C12.1845 8.34505 12.26 8.35862 12.3356 8.35551C12.4112 8.3524 12.4855 8.33268 12.5536 8.2976C12.6218 8.26252 12.6823 8.21283 12.7316 8.15165L13.4017 7.4386L13.4456 8.42634C13.4456 9.82143 12.9248 11.1594 11.9978 12.1458C11.0707 13.1323 9.8134 13.6865 8.50237 13.6865C8.3567 13.6865 8.217 13.7481 8.114 13.8577C8.01099 13.9673 7.95312 14.116 7.95312 14.271C7.95312 14.426 8.01099 14.5747 8.114 14.6843C8.217 14.7939 8.3567 14.8554 8.50237 14.8554C10.1047 14.8554 11.6415 14.1781 12.7745 12.9724C13.9076 11.7667 14.5441 10.1314 14.5441 8.42634L14.5111 7.59056L15.0604 8.17502C15.166 8.28353 15.3078 8.34295 15.4546 8.34021C15.6014 8.33747 15.7411 8.2728 15.8431 8.16041C15.945 8.04803 16.0009 7.89715 15.9983 7.74096C15.9957 7.58476 15.935 7.43606 15.8293 7.32755Z" fill="#223D9F"/>
</svg>
